<svg id="SvgjsSvg1229" xmlns="http://www.w3.org/2000/svg" version="1.1" xmlns:xlink="http://www.w3.org/1999/xlink" xmlns:svgjs="http://svgjs.com/svgjs" width="752.5" height="824"><defs id="SvgjsDefs1230"><marker id="SvgjsMarker1263" markerWidth="14" markerHeight="10" refX="10" refY="5" viewBox="0 0 14 10" orient="auto" markerUnits="userSpaceOnUse" stroke-dasharray="0,0"><path id="SvgjsPath1264" d="M0 0L14 5L0 10L0 0 " fill="#323232" stroke="#323232" stroke-width="1"></path></marker><marker id="SvgjsMarker1267" markerWidth="14" markerHeight="10" refX="10" refY="5" viewBox="0 0 14 10" orient="auto" markerUnits="userSpaceOnUse" stroke-dasharray="0,0"><path id="SvgjsPath1268" d="M0 0L14 5L0 10L0 0 " fill="#323232" stroke="#323232" stroke-width="1"></path></marker><marker id="SvgjsMarker1283" markerWidth="14" markerHeight="10" refX="10" refY="5" viewBox="0 0 14 10" orient="auto" markerUnits="userSpaceOnUse" stroke-dasharray="0,0"><path id="SvgjsPath1284" d="M0 0L14 5L0 10L0 0 " fill="#323232" stroke="#323232" stroke-width="1"></path></marker><marker id="SvgjsMarker1293" markerWidth="14" markerHeight="10" refX="10" refY="5" viewBox="0 0 14 10" orient="auto" markerUnits="userSpaceOnUse" stroke-dasharray="0,0"><path id="SvgjsPath1294" d="M0 0L14 5L0 10L0 0 " fill="#323232" stroke="#323232" stroke-width="1"></path></marker><marker id="SvgjsMarker1297" markerWidth="14" markerHeight="10" refX="10" refY="5" viewBox="0 0 14 10" orient="auto" markerUnits="userSpaceOnUse" stroke-dasharray="0,0"><path id="SvgjsPath1298" d="M0 0L14 5L0 10L0 0 " fill="#323232" stroke="#323232" stroke-width="1"></path></marker><marker id="SvgjsMarker1301" markerWidth="14" markerHeight="10" refX="10" refY="5" viewBox="0 0 14 10" orient="auto" markerUnits="userSpaceOnUse" stroke-dasharray="0,0"><path id="SvgjsPath1302" d="M0 0L14 5L0 10L0 0 " fill="#323232" stroke="#323232" stroke-width="1"></path></marker><marker id="SvgjsMarker1309" markerWidth="14" markerHeight="10" refX="10" refY="5" viewBox="0 0 14 10" orient="auto" markerUnits="userSpaceOnUse" stroke-dasharray="0,0"><path id="SvgjsPath1310" d="M0 0L14 5L0 10L0 0 " fill="#f44336" stroke="#f44336" stroke-width="1"></path></marker><marker id="SvgjsMarker1323" markerWidth="14" markerHeight="10" refX="10" refY="5" viewBox="0 0 14 10" orient="auto" markerUnits="userSpaceOnUse" stroke-dasharray="0,0"><path id="SvgjsPath1324" d="M0 0L14 5L0 10L0 0 " fill="#323232" stroke="#323232" stroke-width="1"></path></marker><marker id="SvgjsMarker1327" markerWidth="14" markerHeight="10" refX="10" refY="5" viewBox="0 0 14 10" orient="auto" markerUnits="userSpaceOnUse" stroke-dasharray="0,0"><path id="SvgjsPath1328" d="M0 0L14 5L0 10L0 0 " fill="#323232" stroke="#323232" stroke-width="1"></path></marker><marker id="SvgjsMarker1337" markerWidth="14" markerHeight="10" refX="10" refY="5" viewBox="0 0 14 10" orient="auto" markerUnits="userSpaceOnUse" stroke-dasharray="0,0"><path id="SvgjsPath1338" d="M0 0L14 5L0 10L0 0 " fill="#323232" stroke="#323232" stroke-width="1"></path></marker><marker id="SvgjsMarker1341" markerWidth="14" markerHeight="10" refX="10" refY="5" viewBox="0 0 14 10" orient="auto" markerUnits="userSpaceOnUse" stroke-dasharray="0,0"><path id="SvgjsPath1342" d="M0 0L14 5L0 10L0 0 " fill="#323232" stroke="#323232" stroke-width="1"></path></marker><marker id="SvgjsMarker1345" markerWidth="14" markerHeight="10" refX="10" refY="5" viewBox="0 0 14 10" orient="auto" markerUnits="userSpaceOnUse" stroke-dasharray="0,0"><path id="SvgjsPath1346" d="M0 0L14 5L0 10L0 0 " fill="#f44336" stroke="#f44336" stroke-width="1"></path></marker><marker id="SvgjsMarker1353" markerWidth="14" markerHeight="10" refX="10" refY="5" viewBox="0 0 14 10" orient="auto" markerUnits="userSpaceOnUse" stroke-dasharray="0,0"><path id="SvgjsPath1354" d="M0 0L14 5L0 10L0 0 " fill="#f44336" stroke="#f44336" stroke-width="1"></path></marker></defs><g id="SvgjsG1231" transform="translate(267,126)"><path id="SvgjsPath1232" d="M15.333333333333334 0L195.66666666666666 0C216.11111111111111 0 216.11111111111111 46 195.66666666666666 46L15.333333333333334 46C-5.111111111111112 46 -5.111111111111112 0 15.333333333333334 0Z " stroke="none" fill-opacity="1" fill="#ba68c8"></path><g id="SvgjsG1233"><text id="SvgjsText1234" font-family="微软雅黑" text-anchor="middle" font-size="13px" width="191px" fill="#ffffff" font-weight="700" align="middle" lineHeight="125%" font-style="" opacity="1" y="12.375" transform="rotate(0)"><tspan id="SvgjsTspan1235" dy="16" x="105.5"><tspan id="SvgjsTspan1236" style="text-decoration:;">message_created</tspan></tspan></text></g></g><g id="SvgjsG1237" transform="translate(77,349)"><path id="SvgjsPath1238" d="M15.333333333333334 0L195.66666666666666 0C216.11111111111111 0 216.11111111111111 46 195.66666666666666 46L15.333333333333334 46C-5.111111111111112 46 -5.111111111111112 0 15.333333333333334 0Z " stroke="none" fill-opacity="1" fill="#ba68c8"></path><g id="SvgjsG1239"><text id="SvgjsText1240" font-family="微软雅黑" text-anchor="middle" font-size="13px" width="191px" fill="#ffffff" font-weight="700" align="middle" lineHeight="125%" font-style="" opacity="1" y="12.375" transform="rotate(0)"><tspan id="SvgjsTspan1241" dy="16" x="105.5"><tspan id="SvgjsTspan1242" style="text-decoration:;">message_before_handle</tspan></tspan></text></g></g><g id="SvgjsG1243" transform="translate(77,450)"><path id="SvgjsPath1244" d="M15.333333333333334 0L195.66666666666666 0C216.11111111111111 0 216.11111111111111 46 195.66666666666666 46L15.333333333333334 46C-5.111111111111112 46 -5.111111111111112 0 15.333333333333334 0Z " stroke="none" fill-opacity="1" fill="#ba68c8"></path><g id="SvgjsG1245"><text id="SvgjsText1246" font-family="微软雅黑" text-anchor="middle" font-size="13px" width="191px" fill="#ffffff" font-weight="700" align="middle" lineHeight="125%" font-style="" opacity="1" y="12.375" transform="rotate(0)"><tspan id="SvgjsTspan1247" dy="16" x="105.5"><tspan id="SvgjsTspan1248" style="text-decoration:;">message_before_send</tspan></tspan></text></g></g><g id="SvgjsG1249" transform="translate(77,652)"><path id="SvgjsPath1250" d="M15.333333333333334 0L195.66666666666666 0C216.11111111111111 0 216.11111111111111 46 195.66666666666666 46L15.333333333333334 46C-5.111111111111112 46 -5.111111111111112 0 15.333333333333334 0Z " stroke="none" fill-opacity="1" fill="#ba68c8"></path><g id="SvgjsG1251"><text id="SvgjsText1252" font-family="微软雅黑" text-anchor="middle" font-size="13px" width="191px" fill="#ffffff" font-weight="700" align="middle" lineHeight="125%" font-style="" opacity="1" y="12.375" transform="rotate(0)"><tspan id="SvgjsTspan1253" dy="16" x="105.5"><tspan id="SvgjsTspan1254" style="text-decoration:;">message_after_send</tspan></tspan></text></g></g><g id="SvgjsG1255" transform="translate(77,753)"><path id="SvgjsPath1256" d="M15.333333333333334 0L195.66666666666666 0C216.11111111111111 0 216.11111111111111 46 195.66666666666666 46L15.333333333333334 46C-5.111111111111112 46 -5.111111111111112 0 15.333333333333334 0Z " stroke="none" fill-opacity="1" fill="#ba68c8"></path><g id="SvgjsG1257"><text id="SvgjsText1258" font-family="微软雅黑" text-anchor="middle" font-size="13px" width="191px" fill="#ffffff" font-weight="700" align="middle" lineHeight="125%" font-style="" opacity="1" y="12.375" transform="rotate(0)"><tspan id="SvgjsTspan1259" dy="16" x="105.5"><tspan id="SvgjsTspan1260" style="text-decoration:;">message_after_handle</tspan></tspan></text></g></g><g id="SvgjsG1261"><path id="SvgjsPath1262" d="M182.5 395L182.5 422.5L182.5 422.5L182.5 447.4 " stroke="#323232" stroke-width="2" fill="none" marker-end="url(#SvgjsMarker1263)"></path></g><g id="SvgjsG1265"><path id="SvgjsPath1266" d="M182.5 698L182.5 725.5L182.5 725.5L182.5 750.4 " stroke="#323232" stroke-width="2" fill="none" marker-end="url(#SvgjsMarker1267)"></path></g><g id="SvgjsG1269" transform="translate(457,349)"><path id="SvgjsPath1270" d="M15.333333333333334 0L195.66666666666666 0C216.11111111111111 0 216.11111111111111 46 195.66666666666666 46L15.333333333333334 46C-5.111111111111112 46 -5.111111111111112 0 15.333333333333334 0Z " stroke="none" fill-opacity="1" fill="#ba68c8"></path><g id="SvgjsG1271"><text id="SvgjsText1272" font-family="微软雅黑" text-anchor="middle" font-size="13px" width="191px" fill="#ffffff" font-weight="700" align="middle" lineHeight="125%" font-style="" opacity="1" y="12.375" transform="rotate(0)"><tspan id="SvgjsTspan1273" dy="16" x="105.5"><tspan id="SvgjsTspan1274" style="text-decoration:;">message_before_waiter_set</tspan></tspan></text></g></g><g id="SvgjsG1275" transform="translate(267,25)"><path id="SvgjsPath1276" d="M15.333333333333334 0L195.66666666666666 0C216.11111111111111 0 216.11111111111111 46 195.66666666666666 46L15.333333333333334 46C-5.111111111111112 46 -5.111111111111112 0 15.333333333333334 0Z " stroke="none" fill-opacity="1" fill="#1dbf00"></path><g id="SvgjsG1277"><text id="SvgjsText1278" font-family="微软雅黑" text-anchor="middle" font-size="13px" width="191px" fill="#ffffff" font-weight="700" align="middle" lineHeight="125%" font-style="" opacity="1" y="12.375" transform="rotate(0)"><tspan id="SvgjsTspan1279" dy="16" x="105.5"><tspan id="SvgjsTspan1280" style="text-decoration:;">message_recv</tspan></tspan></text></g></g><g id="SvgjsG1281"><path id="SvgjsPath1282" d="M372.5 71L372.5 98.5L372.5 98.5L372.5 123.4 " stroke="#323232" stroke-width="2" fill="none" marker-end="url(#SvgjsMarker1283)"></path></g><g id="SvgjsG1285" transform="translate(288.25,227)"><path id="SvgjsPath1286" d="M0 33.5L84.25 0L168.5 33.5L84.25 67L0 33.5Z " stroke="none" fill-opacity="1" fill="#1dbf00"></path><g id="SvgjsG1287"><text id="SvgjsText1288" font-family="微软雅黑" text-anchor="middle" font-size="13px" width="149px" fill="#ffffff" font-weight="700" align="middle" lineHeight="125%" font-style="" opacity="1" y="22.875" transform="rotate(0)"><tspan id="SvgjsTspan1289" dy="16" x="84.5"><tspan id="SvgjsTspan1290" style="text-decoration:;">choice_handlers</tspan></tspan></text></g></g><g id="SvgjsG1291"><path id="SvgjsPath1292" d="M372.5 172L372.5 199.5L372.5 199.5L372.5 224.39999999999998 " stroke="#323232" stroke-width="2" fill="none" marker-end="url(#SvgjsMarker1293)"></path></g><g id="SvgjsG1295"><path id="SvgjsPath1296" d="M372.5 294L372.5 321.5L182.5 321.5L182.5 346.4 " stroke="#323232" stroke-width="2" fill="none" marker-end="url(#SvgjsMarker1297)"></path></g><g id="SvgjsG1299"><path id="SvgjsPath1300" d="M372.5 294L372.5 321.5L562.5 321.5L562.5 346.4 " stroke="#323232" stroke-width="2" fill="none" marker-end="url(#SvgjsMarker1301)"></path><rect id="SvgjsRect1303" width="61" height="16" x="435.7" y="313.5" fill="#ffffff"></rect><text id="SvgjsText1304" font-family="微软雅黑" text-anchor="middle" font-size="13px" width="61px" fill="#323232" font-weight="400" align="top" lineHeight="16px" font-style="" opacity="1" y="310.875" transform="rotate(0)"><tspan id="SvgjsTspan1305" dy="16" x="466.2"><tspan id="SvgjsTspan1306" style="text-decoration:;">No choice</tspan></tspan></text></g><g id="SvgjsG1307"><path id="SvgjsPath1308" d="M478 149L600 149L600 346.4 " stroke-dasharray="8,5" stroke="#f44336" stroke-width="2" fill="none" marker-end="url(#SvgjsMarker1309)"></path><rect id="SvgjsRect1311" width="64" height="16" x="568" y="221" fill="#ffffff"></rect><text id="SvgjsText1312" font-family="微软雅黑" text-anchor="middle" font-size="13px" width="64px" fill="#323232" font-weight="400" align="top" lineHeight="16px" font-style="" opacity="1" y="218.375" transform="rotate(0)"><tspan id="SvgjsTspan1313" dy="16" x="600"><tspan id="SvgjsTspan1314" style="text-decoration:;">Force wait</tspan></tspan></text></g><g id="SvgjsG1315" transform="translate(77,551)"><path id="SvgjsPath1316" d="M15.333333333333334 0L195.66666666666666 0C216.11111111111111 0 216.11111111111111 46 195.66666666666666 46L15.333333333333334 46C-5.111111111111112 46 -5.111111111111112 0 15.333333333333334 0Z " stroke="none" fill-opacity="1" fill="#1dbf00"></path><g id="SvgjsG1317"><text id="SvgjsText1318" font-family="微软雅黑" text-anchor="middle" font-size="13px" width="191px" fill="#ffffff" font-weight="700" align="middle" lineHeight="125%" font-style="" opacity="1" y="12.375" transform="rotate(0)"><tspan id="SvgjsTspan1319" dy="16" x="105.5"><tspan id="SvgjsTspan1320" style="text-decoration:;">message_send</tspan></tspan></text></g></g><g id="SvgjsG1321"><path id="SvgjsPath1322" d="M182.5 496L182.5 523.5L182.5 523.5L182.5 548.4 " stroke="#323232" stroke-width="2" fill="none" marker-end="url(#SvgjsMarker1323)"></path></g><g id="SvgjsG1325"><path id="SvgjsPath1326" d="M182.5 597L182.5 624.5L182.5 624.5L182.5 649.4 " stroke="#323232" stroke-width="2" fill="none" marker-end="url(#SvgjsMarker1327)"></path></g><g id="SvgjsG1329" transform="translate(457,450)"><path id="SvgjsPath1330" d="M15.333333333333334 0L195.66666666666666 0C216.11111111111111 0 216.11111111111111 46 195.66666666666666 46L15.333333333333334 46C-5.111111111111112 46 -5.111111111111112 0 15.333333333333334 0Z " stroke="none" fill-opacity="1" fill="#1dbf00"></path><g id="SvgjsG1331"><text id="SvgjsText1332" font-family="微软雅黑" text-anchor="middle" font-size="13px" width="191px" fill="#ffffff" font-weight="700" align="middle" lineHeight="125%" font-style="" opacity="1" y="12.375" transform="rotate(0)"><tspan id="SvgjsTspan1333" dy="16" x="105.5"><tspan id="SvgjsTspan1334" style="text-decoration:;">waiter_set</tspan></tspan></text></g></g><g id="SvgjsG1335"><path id="SvgjsPath1336" d="M562.5 395L562.5 422.5L562.5 422.5L562.5 447.4 " stroke="#323232" stroke-width="2" fill="none" marker-end="url(#SvgjsMarker1337)"></path></g><g id="SvgjsG1339"><path id="SvgjsPath1340" d="M457 473L372.5 473L372.5 473L290.6 473 " stroke-dasharray="8,5" stroke="#323232" stroke-width="2" fill="none" marker-end="url(#SvgjsMarker1341)"></path></g><g id="SvgjsG1343"><path id="SvgjsPath1344" d="M77 372L47 372L47 48L264.4 48 " stroke-dasharray="8,5" stroke="#f44336" stroke-width="2" fill="none" marker-end="url(#SvgjsMarker1345)"></path><rect id="SvgjsRect1347" width="64" height="16" x="15" y="185" fill="#ffffff"></rect><text id="SvgjsText1348" font-family="微软雅黑" text-anchor="middle" font-size="13px" width="64px" fill="#323232" font-weight="400" align="top" lineHeight="16px" font-style="" opacity="1" y="182.375" transform="rotate(0)"><tspan id="SvgjsTspan1349" dy="16" x="47"><tspan id="SvgjsTspan1350" style="text-decoration:;">Wait event</tspan></tspan></text></g><g id="SvgjsG1351"><path id="SvgjsPath1352" d="M668 473L698 473L698 48L480.6 48 " stroke-dasharray="8,5" stroke="#f44336" stroke-width="2" fill="none" marker-end="url(#SvgjsMarker1353)"></path><rect id="SvgjsRect1355" width="79" height="16" x="658.5" y="252" fill="#ffffff"></rect><text id="SvgjsText1356" font-family="微软雅黑" text-anchor="middle" font-size="13px" width="79px" fill="#323232" font-weight="400" align="top" lineHeight="16px" font-style="" opacity="1" y="249.375" transform="rotate(0)"><tspan id="SvgjsTspan1357" dy="16" x="698"><tspan id="SvgjsTspan1358" style="text-decoration:;">Keep waiting</tspan></tspan></text></g></svg>