<?xml version="1.0" standalone="no"?><?xml-stylesheet type="text/css" href="https://www.processon.com/themes/default/mind/icons/icons.css" ?><!DOCTYPE svg PUBLIC "-//W3C//DTD SVG 1.1//EN" "http://www.w3.org/Graphics/SVG/1.1/DTD/svg11.dtd"><svg id="SvgjsSvg1000" xmlns="http://www.w3.org/2000/svg" version="1.1" xmlns:xlink="http://www.w3.org/1999/xlink" xmlns:svgjs="http://svgjs.com/svgjs" width="863" height="500"><rect fill="url(#pattern_mark)" transform="translate(-109,-180)" width="1171" height="1500" id="rect_mark" pointer-events="none"></rect><defs id="SvgjsDefs1001"><marker id="SvgjsMarker1029" markerWidth="14" markerHeight="10" refX="10" refY="5" viewBox="0 0 14 10" orient="auto" markerUnits="userSpaceOnUse" stroke-dasharray="0,0"><path id="SvgjsPath1030" d="M0 0L14 5L0 10L0 0 " fill="#2196f3" stroke="#2196f3" stroke-width="1"></path></marker><marker id="SvgjsMarker1033" markerWidth="14" markerHeight="10" refX="10" refY="5" viewBox="0 0 14 10" orient="auto" markerUnits="userSpaceOnUse" stroke-dasharray="0,0"><path id="SvgjsPath1034" d="M0 0L14 5L0 10L0 0 " fill="#2196f3" stroke="#2196f3" stroke-width="1"></path></marker><marker id="SvgjsMarker1053" markerWidth="14" markerHeight="10" refX="10" refY="5" viewBox="0 0 14 10" orient="auto" markerUnits="userSpaceOnUse" stroke-dasharray="0,0"><path id="SvgjsPath1054" d="M0 0L14 5L0 10L0 0 " fill="#2196f3" stroke="#2196f3" stroke-width="1"></path></marker><marker id="SvgjsMarker1057" markerWidth="14" markerHeight="10" refX="10" refY="5" viewBox="0 0 14 10" orient="auto" markerUnits="userSpaceOnUse" stroke-dasharray="0,0"><path id="SvgjsPath1058" d="M0 0L14 5L0 10L0 0 " fill="#2196f3" stroke="#2196f3" stroke-width="1"></path></marker><marker id="SvgjsMarker1067" markerWidth="14" markerHeight="10" refX="10" refY="5" viewBox="0 0 14 10" orient="auto" markerUnits="userSpaceOnUse" stroke-dasharray="0,0"><path id="SvgjsPath1068" d="M0 0L14 5L0 10L0 0 " fill="#9c27b0" stroke="#9c27b0" stroke-width="1"></path></marker><marker id="SvgjsMarker1071" markerWidth="14" markerHeight="10" refX="10" refY="5" viewBox="0 0 14 10" orient="auto" markerUnits="userSpaceOnUse" stroke-dasharray="0,0"><path id="SvgjsPath1072" d="M0 0L14 5L0 10L0 0 " fill="#9c27b0" stroke="#9c27b0" stroke-width="1"></path></marker><marker id="SvgjsMarker1095" markerWidth="14" markerHeight="10" refX="10" refY="5" viewBox="0 0 14 10" orient="auto" markerUnits="userSpaceOnUse" stroke-dasharray="0,0"><path id="SvgjsPath1096" d="M0 0L14 5L0 10L0 0 " fill="#2196f3" stroke="#2196f3" stroke-width="1"></path></marker><marker id="SvgjsMarker1099" markerWidth="14" markerHeight="10" refX="10" refY="5" viewBox="0 0 14 10" orient="auto" markerUnits="userSpaceOnUse" stroke-dasharray="0,0"><path id="SvgjsPath1100" d="M0 0L14 5L0 10L0 0 " fill="#2196f3" stroke="#2196f3" stroke-width="1"></path></marker><marker id="SvgjsMarker1109" markerWidth="14" markerHeight="10" refX="10" refY="5" viewBox="0 0 14 10" orient="auto" markerUnits="userSpaceOnUse" stroke-dasharray="0,0"><path id="SvgjsPath1110" d="M0 0L14 5L0 10L0 0 " fill="#f44336" stroke="#f44336" stroke-width="1"></path></marker><marker id="SvgjsMarker1113" markerWidth="14" markerHeight="10" refX="10" refY="5" viewBox="0 0 14 10" orient="auto" markerUnits="userSpaceOnUse" stroke-dasharray="0,0"><path id="SvgjsPath1114" d="M0 0L14 5L0 10L0 0 " fill="#f44336" stroke="#f44336" stroke-width="1"></path></marker><marker id="SvgjsMarker1124" markerWidth="14" markerHeight="10" refX="10" refY="5" viewBox="0 0 14 10" orient="auto" markerUnits="userSpaceOnUse" stroke-dasharray="0,0"><path id="SvgjsPath1125" d="M0 0L14 5L0 10L0 0 " fill="#2196f3" stroke="#2196f3" stroke-width="1"></path></marker><marker id="SvgjsMarker1134" markerWidth="14" markerHeight="10" refX="10" refY="5" viewBox="0 0 14 10" orient="auto" markerUnits="userSpaceOnUse" stroke-dasharray="0,0"><path id="SvgjsPath1135" d="M0 0L14 5L0 10L0 0 " fill="#2196f3" stroke="#2196f3" stroke-width="1"></path></marker><pattern patternUnits="userSpaceOnUse" id="pattern_mark" width="300" height="300"><text x="-50" y="150" fill="rgba(229,229,229,0.8)" font-size="18" transform="rotate(-45, 150, 150)"></text></pattern></defs><g id="SvgjsG1007" transform="translate(25,205)"><path id="SvgjsPath1008" d="M0 0L92 0L92 30L0 30Z " stroke="none" fill-opacity="1" fill="#2196f3"></path><g id="SvgjsG1009"><text id="SvgjsText1010" font-family="微软雅黑" text-anchor="middle" font-size="14px" width="72px" fill="#ffffff" font-weight="400" align="middle" lineHeight="125%" font-style="" opacity="1" y="3.75" transform="rotate(0)"><tspan id="SvgjsTspan1011" dy="17" x="46"><tspan id="SvgjsTspan1012" style="text-decoration:;">P</tspan><tspan id="SvgjsTspan1013" style="text-decoration:;font-size: inherit;">lugin</tspan></tspan></text></g></g><g id="SvgjsG1014" transform="translate(214,235)"><path id="SvgjsPath1015" d="M0 0L92 0L92 30L0 30Z " stroke="none" fill-opacity="1" fill="#9c27b0"></path><g id="SvgjsG1016"><text id="SvgjsText1017" font-family="微软雅黑" text-anchor="middle" font-size="14px" width="72px" fill="#ffffff" font-weight="400" align="middle" lineHeight="125%" font-style="" opacity="1" y="3.75" transform="rotate(0)"><tspan id="SvgjsTspan1018" dy="17" x="46"><tspan id="SvgjsTspan1019" style="text-decoration:;">AmiyaBot</tspan></tspan></text></g></g><g id="SvgjsG1020" transform="translate(25,265)"><path id="SvgjsPath1021" d="M0 0L92 0L92 30L0 30Z " stroke="none" fill-opacity="1" fill="#2196f3"></path><g id="SvgjsG1022"><text id="SvgjsText1023" font-family="微软雅黑" text-anchor="middle" font-size="14px" width="72px" fill="#ffffff" font-weight="400" align="middle" lineHeight="125%" font-style="" opacity="1" y="3.75" transform="rotate(0)"><tspan id="SvgjsTspan1024" dy="17" x="46"><tspan id="SvgjsTspan1025" style="text-decoration:;">P</tspan><tspan id="SvgjsTspan1026" style="text-decoration:;font-size: inherit;">lugin</tspan></tspan></text></g></g><g id="SvgjsG1027"><path id="SvgjsPath1028" d="M117 220L165.5 220L165.5 250L211.39999999999998 250 " stroke="#2196f3" stroke-width="2" fill="none" marker-end="url(#SvgjsMarker1029)"></path></g><g id="SvgjsG1031"><path id="SvgjsPath1032" d="M117 280L165.5 280L165.5 250L211.39999999999998 250 " stroke="#2196f3" stroke-width="2" fill="none" marker-end="url(#SvgjsMarker1033)"></path></g><g id="SvgjsG1035" transform="translate(25,325)"><path id="SvgjsPath1036" d="M0 0L92 0L92 30L0 30Z " stroke-dasharray="10,6" stroke="rgba(33,150,243,1)" stroke-width="2" fill="none"></path><g id="SvgjsG1037"><text id="SvgjsText1038" font-family="微软雅黑" text-anchor="middle" font-size="14px" width="72px" fill="#ffffff" font-weight="400" align="middle" lineHeight="125%" font-style="" opacity="1" y="3.75" transform="rotate(0)"><tspan id="SvgjsTspan1039" dy="17" x="46"><tspan id="SvgjsTspan1040" style="text-decoration:;"> </tspan></tspan></text></g></g><g id="SvgjsG1041" transform="translate(214,355)"><path id="SvgjsPath1042" d="M0 0L92 0L92 30L0 30Z " stroke-dasharray="10,6" stroke="rgba(156,39,176,1)" stroke-width="2" fill="none"></path><g id="SvgjsG1043"><text id="SvgjsText1044" font-family="微软雅黑" text-anchor="middle" font-size="14px" width="72px" fill="#ffffff" font-weight="400" align="middle" lineHeight="125%" font-style="" opacity="1" y="3.75" transform="rotate(0)"></text></g></g><g id="SvgjsG1045" transform="translate(25,385)"><path id="SvgjsPath1046" d="M0 0L92 0L92 30L0 30Z " stroke-dasharray="10,6" stroke="rgba(33,150,243,1)" stroke-width="2" fill="none"></path><g id="SvgjsG1047"><text id="SvgjsText1048" font-family="微软雅黑" text-anchor="middle" font-size="14px" width="72px" fill="#ffffff" font-weight="400" align="middle" lineHeight="125%" font-style="" opacity="1" y="3.75" transform="rotate(0)"><tspan id="SvgjsTspan1049" dy="17" x="46"><tspan id="SvgjsTspan1050" style="text-decoration:;"> </tspan></tspan></text></g></g><g id="SvgjsG1051"><path id="SvgjsPath1052" d="M118 340L165.5 340L165.5 370L210.39999999999998 370 " stroke-dasharray="8,5" stroke="#2196f3" stroke-width="2" fill="none" marker-end="url(#SvgjsMarker1053)"></path></g><g id="SvgjsG1055"><path id="SvgjsPath1056" d="M118 400L165.5 400L165.5 370L210.39999999999998 370 " stroke-dasharray="8,5" stroke="#2196f3" stroke-width="2" fill="none" marker-end="url(#SvgjsMarker1057)"></path></g><g id="SvgjsG1059" transform="translate(403,340.5)"><path id="SvgjsPath1060" d="M0 0L169 0L169 59L0 59Z " stroke="none" fill-opacity="1" fill="#4caf50"></path><g id="SvgjsG1061"><text id="SvgjsText1062" font-family="微软雅黑" text-anchor="middle" font-size="14px" width="149px" fill="#ffffff" font-weight="400" align="middle" lineHeight="125%" font-style="" opacity="1" y="18.25" transform="rotate(0)"><tspan id="SvgjsTspan1063" dy="17" x="84.5"><tspan id="SvgjsTspan1064" style="text-decoration:;">MultipleAccounts</tspan></tspan></text></g></g><g id="SvgjsG1065"><path id="SvgjsPath1066" d="M306 250L354.5 250L354.5 370L400.4 370 " stroke="#9c27b0" stroke-width="2" fill="none" marker-end="url(#SvgjsMarker1067)"></path></g><g id="SvgjsG1069"><path id="SvgjsPath1070" d="M307 370L354.5 370L354.5 370L400.4 370 " stroke-dasharray="8,5" stroke="#9c27b0" stroke-width="2" fill="none" marker-end="url(#SvgjsMarker1071)"></path></g><g id="SvgjsG1073" transform="translate(25,85)"><path id="SvgjsPath1074" d="M0 0L92 0L92 30L0 30Z " stroke="none" fill-opacity="1" fill="#2196f3"></path><g id="SvgjsG1075"><text id="SvgjsText1076" font-family="微软雅黑" text-anchor="middle" font-size="14px" width="72px" fill="#ffffff" font-weight="400" align="middle" lineHeight="125%" font-style="" opacity="1" y="3.75" transform="rotate(0)"><tspan id="SvgjsTspan1077" dy="17" x="46"><tspan id="SvgjsTspan1078" style="text-decoration:;">P</tspan><tspan id="SvgjsTspan1079" style="text-decoration:;font-size: inherit;">lugin</tspan></tspan></text></g></g><g id="SvgjsG1080" transform="translate(214,115)"><path id="SvgjsPath1081" d="M0 0L92 0L92 30L0 30Z " stroke="none" fill-opacity="1" fill="#9c27b0"></path><g id="SvgjsG1082"><text id="SvgjsText1083" font-family="微软雅黑" text-anchor="middle" font-size="14px" width="72px" fill="#ffffff" font-weight="400" align="middle" lineHeight="125%" font-style="" opacity="1" y="3.75" transform="rotate(0)"><tspan id="SvgjsTspan1084" dy="17" x="46"><tspan id="SvgjsTspan1085" style="text-decoration:;">AmiyaBot</tspan></tspan></text></g></g><g id="SvgjsG1086" transform="translate(25,145)"><path id="SvgjsPath1087" d="M0 0L92 0L92 30L0 30Z " stroke="none" fill-opacity="1" fill="#2196f3"></path><g id="SvgjsG1088"><text id="SvgjsText1089" font-family="微软雅黑" text-anchor="middle" font-size="14px" width="72px" fill="#ffffff" font-weight="400" align="middle" lineHeight="125%" font-style="" opacity="1" y="3.75" transform="rotate(0)"><tspan id="SvgjsTspan1090" dy="17" x="46"><tspan id="SvgjsTspan1091" style="text-decoration:;">P</tspan><tspan id="SvgjsTspan1092" style="text-decoration:;font-size: inherit;">lugin</tspan></tspan></text></g></g><g id="SvgjsG1093"><path id="SvgjsPath1094" d="M117 100L165.5 100L165.5 130L211.39999999999998 130 " stroke="#2196f3" stroke-width="2" fill="none" marker-end="url(#SvgjsMarker1095)"></path></g><g id="SvgjsG1097"><path id="SvgjsPath1098" d="M117 160L165.5 160L165.5 130L211.39999999999998 130 " stroke="#2196f3" stroke-width="2" fill="none" marker-end="url(#SvgjsMarker1099)"></path></g><g id="SvgjsG1101" transform="translate(669,215)"><path id="SvgjsPath1102" d="M0 0L169 0L169 70L0 70Z " stroke="none" fill-opacity="1" fill="#f44336"></path><g id="SvgjsG1103"><text id="SvgjsText1104" font-family="微软雅黑" text-anchor="middle" font-size="14px" width="149px" fill="#ffffff" font-weight="400" align="middle" lineHeight="125%" font-style="" opacity="1" y="23.75" transform="rotate(0)"><tspan id="SvgjsTspan1105" dy="17" x="84.5"><tspan id="SvgjsTspan1106" style="text-decoration:;">CenterProcessor</tspan></tspan></text></g></g><g id="SvgjsG1107"><path id="SvgjsPath1108" d="M572 370L620.5 370L620.5 250L666.4 250 " stroke-dasharray="8,5" stroke="#f44336" stroke-width="2" fill="none" marker-end="url(#SvgjsMarker1109)"></path></g><g id="SvgjsG1111"><path id="SvgjsPath1112" d="M306 130L487.5 130L487.5 250L666.4 250 " stroke-dasharray="8,5" stroke="#f44336" stroke-width="2" fill="none" marker-end="url(#SvgjsMarker1113)"></path></g><g id="SvgjsG1115" transform="translate(25,445)"><path id="SvgjsPath1116" d="M0 0L92 0L92 30L0 30Z " stroke="none" fill-opacity="1" fill="#2196f3"></path><g id="SvgjsG1117"><text id="SvgjsText1118" font-family="微软雅黑" text-anchor="middle" font-size="14px" width="72px" fill="#ffffff" font-weight="400" align="middle" lineHeight="125%" font-style="" opacity="1" y="3.75" transform="rotate(0)"><tspan id="SvgjsTspan1119" dy="17" x="46"><tspan id="SvgjsTspan1120" style="text-decoration:;">P</tspan><tspan id="SvgjsTspan1121" style="text-decoration:;font-size: inherit;">lugin</tspan></tspan></text></g></g><g id="SvgjsG1122"><path id="SvgjsPath1123" d="M117 460L487.5 460L487.5 402.1 " stroke="#2196f3" stroke-width="2" fill="none" marker-end="url(#SvgjsMarker1124)"></path></g><g id="SvgjsG1126" transform="translate(25,25)"><path id="SvgjsPath1127" d="M0 0L92 0L92 30L0 30Z " stroke-dasharray="10,6" stroke="rgba(33,150,243,1)" stroke-width="2" fill="none"></path><g id="SvgjsG1128"><text id="SvgjsText1129" font-family="微软雅黑" text-anchor="middle" font-size="14px" width="72px" fill="#ffffff" font-weight="400" align="middle" lineHeight="125%" font-style="" opacity="1" y="3.75" transform="rotate(0)"><tspan id="SvgjsTspan1130" dy="17" x="46"><tspan id="SvgjsTspan1131" style="text-decoration:;"> </tspan></tspan></text></g></g><g id="SvgjsG1132"><path id="SvgjsPath1133" d="M118 40L165.5 40L165.5 130L211.39999999999998 130 " stroke-dasharray="8,5" stroke="#2196f3" stroke-width="2" fill="none" marker-end="url(#SvgjsMarker1134)"></path></g></svg>