<?xml version="1.0" standalone="no"?><?xml-stylesheet type="text/css" href="https://www.processon.com/themes/default/mind/icons/icons.css" ?><!DOCTYPE svg PUBLIC "-//W3C//DTD SVG 1.1//EN" "http://www.w3.org/Graphics/SVG/1.1/DTD/svg11.dtd"><svg id="SvgjsSvg1281" xmlns="http://www.w3.org/2000/svg" version="1.1" xmlns:xlink="http://www.w3.org/1999/xlink" xmlns:svgjs="http://svgjs.com/svgjs" width="739" height="289.5"><rect fill="url(#pattern_mark)" transform="translate(-309,-153)" width="1727" height="854" id="rect_mark" pointer-events="none"></rect><defs id="SvgjsDefs1282"><marker id="SvgjsMarker1313" markerWidth="14" markerHeight="10" refX="4" refY="5" viewBox="0 0 14 10" orient="auto" markerUnits="userSpaceOnUse" stroke-dasharray="0,0"><path id="SvgjsPath1314" d="M14 0L0 5L14 10L14 0 " fill="#2196f3" stroke="#2196f3" stroke-width="1"></path></marker><marker id="SvgjsMarker1315" markerWidth="14" markerHeight="10" refX="10" refY="5" viewBox="0 0 14 10" orient="auto" markerUnits="userSpaceOnUse" stroke-dasharray="0,0"><path id="SvgjsPath1316" d="M0 0L14 5L0 10L0 0 " fill="#2196f3" stroke="#2196f3" stroke-width="1"></path></marker><marker id="SvgjsMarker1319" markerWidth="14" markerHeight="10" refX="4" refY="5" viewBox="0 0 14 10" orient="auto" markerUnits="userSpaceOnUse" stroke-dasharray="0,0"><path id="SvgjsPath1320" d="M14 0L0 5L14 10L14 0 " fill="#2196f3" stroke="#2196f3" stroke-width="1"></path></marker><marker id="SvgjsMarker1321" markerWidth="14" markerHeight="10" refX="10" refY="5" viewBox="0 0 14 10" orient="auto" markerUnits="userSpaceOnUse" stroke-dasharray="0,0"><path id="SvgjsPath1322" d="M0 0L14 5L0 10L0 0 " fill="#2196f3" stroke="#2196f3" stroke-width="1"></path></marker><marker id="SvgjsMarker1325" markerWidth="14" markerHeight="10" refX="4" refY="5" viewBox="0 0 14 10" orient="auto" markerUnits="userSpaceOnUse" stroke-dasharray="0,0"><path id="SvgjsPath1326" d="M14 0L0 5L14 10L14 0 " fill="#2196f3" stroke="#2196f3" stroke-width="1"></path></marker><marker id="SvgjsMarker1327" markerWidth="14" markerHeight="10" refX="10" refY="5" viewBox="0 0 14 10" orient="auto" markerUnits="userSpaceOnUse" stroke-dasharray="0,0"><path id="SvgjsPath1328" d="M0 0L14 5L0 10L0 0 " fill="#2196f3" stroke="#2196f3" stroke-width="1"></path></marker><marker id="SvgjsMarker1331" markerWidth="14" markerHeight="10" refX="4" refY="5" viewBox="0 0 14 10" orient="auto" markerUnits="userSpaceOnUse" stroke-dasharray="0,0"><path id="SvgjsPath1332" d="M14 0L0 5L14 10L14 0 " fill="#2196f3" stroke="#2196f3" stroke-width="1"></path></marker><marker id="SvgjsMarker1333" markerWidth="14" markerHeight="10" refX="10" refY="5" viewBox="0 0 14 10" orient="auto" markerUnits="userSpaceOnUse" stroke-dasharray="0,0"><path id="SvgjsPath1334" d="M0 0L14 5L0 10L0 0 " fill="#2196f3" stroke="#2196f3" stroke-width="1"></path></marker><marker id="SvgjsMarker1343" markerWidth="14" markerHeight="10" refX="10" refY="5" viewBox="0 0 14 10" orient="auto" markerUnits="userSpaceOnUse" stroke-dasharray="0,0"><path id="SvgjsPath1344" d="M0 0L14 5L0 10L0 0 " fill="#f44336" stroke="#f44336" stroke-width="1"></path></marker><marker id="SvgjsMarker1347" markerWidth="14" markerHeight="10" refX="10" refY="5" viewBox="0 0 14 10" orient="auto" markerUnits="userSpaceOnUse" stroke-dasharray="0,0"><path id="SvgjsPath1348" d="M0 0L14 5L0 10L0 0 " fill="#9c27b0" stroke="#9c27b0" stroke-width="1"></path></marker><marker id="SvgjsMarker1357" markerWidth="14" markerHeight="10" refX="10" refY="5" viewBox="0 0 14 10" orient="auto" markerUnits="userSpaceOnUse" stroke-dasharray="0,0"><path id="SvgjsPath1358" d="M0 0L14 5L0 10L0 0 " fill="#f44336" stroke="#f44336" stroke-width="1"></path></marker><marker id="SvgjsMarker1361" markerWidth="14" markerHeight="10" refX="10" refY="5" viewBox="0 0 14 10" orient="auto" markerUnits="userSpaceOnUse" stroke-dasharray="0,0"><path id="SvgjsPath1362" d="M0 0L14 5L0 10L0 0 " fill="#9c27b0" stroke="#9c27b0" stroke-width="1"></path></marker><marker id="SvgjsMarker1365" markerWidth="14" markerHeight="10" refX="10" refY="5" viewBox="0 0 14 10" orient="auto" markerUnits="userSpaceOnUse" stroke-dasharray="0,0"><path id="SvgjsPath1366" d="M0 0L14 5L0 10L0 0 " fill="#9c27b0" stroke="#9c27b0" stroke-width="1"></path></marker><pattern patternUnits="userSpaceOnUse" id="pattern_mark" width="300" height="300"><text x="-50" y="150" fill="rgba(229,229,229,0.8)" font-size="18" transform="rotate(-45, 150, 150)"></text></pattern></defs><g id="SvgjsG1283" transform="translate(25,25)"><path id="SvgjsPath1284" d="M14.333333333333334 0L142 0L127.66666666666667 43L0 43L14.333333333333334 0Z " stroke="none" fill-opacity="1" fill="#2196f3"></path><g id="SvgjsG1285"><text id="SvgjsText1286" font-family="微软雅黑" text-anchor="middle" font-size="14px" width="100px" fill="#ffffff" font-weight="400" align="middle" lineHeight="125%" font-style="" opacity="1" y="10.25" transform="rotate(0)"><tspan id="SvgjsTspan1287" dy="17" x="71.3"><tspan id="SvgjsTspan1288" style="text-decoration:;">Tencent</tspan></tspan></text></g></g><g id="SvgjsG1289" transform="translate(25,90.5)"><path id="SvgjsPath1290" d="M14.333333333333334 0L142 0L127.66666666666667 43L0 43L14.333333333333334 0Z " stroke="none" fill-opacity="1" fill="#2196f3"></path><g id="SvgjsG1291"><text id="SvgjsText1292" font-family="微软雅黑" text-anchor="middle" font-size="14px" width="100px" fill="#ffffff" font-weight="400" align="middle" lineHeight="125%" font-style="" opacity="1" y="10.25" transform="rotate(0)"><tspan id="SvgjsTspan1293" dy="17" x="71.3"><tspan id="SvgjsTspan1294" style="text-decoration:;">Mirai-api-http</tspan></tspan></text></g></g><g id="SvgjsG1295" transform="translate(25,156)"><path id="SvgjsPath1296" d="M14.333333333333334 0L142 0L127.66666666666667 43L0 43L14.333333333333334 0Z " stroke="none" fill-opacity="1" fill="#2196f3"></path><g id="SvgjsG1297"><text id="SvgjsText1298" font-family="微软雅黑" text-anchor="middle" font-size="14px" width="100px" fill="#ffffff" font-weight="400" align="middle" lineHeight="125%" font-style="" opacity="1" y="10.25" transform="rotate(0)"><tspan id="SvgjsTspan1299" dy="17" x="71.3"><tspan id="SvgjsTspan1300" style="text-decoration:;">Go-cqhttp</tspan></tspan></text></g></g><g id="SvgjsG1301" transform="translate(25,221.5)"><path id="SvgjsPath1302" d="M14.333333333333334 0L142 0L127.66666666666667 43L0 43L14.333333333333334 0Z " stroke-dasharray="10,6" stroke="rgba(33,150,243,1)" stroke-width="2" fill="none"></path><g id="SvgjsG1303"><text id="SvgjsText1304" font-family="微软雅黑" text-anchor="middle" font-size="13px" width="100px" fill="#323232" font-weight="400" align="middle" lineHeight="125%" font-style="" opacity="1" y="10.875" transform="rotate(0)"></text></g></g><g id="SvgjsG1305" transform="translate(292,110.5)"><path id="SvgjsPath1306" d="M0 9.1875Q32 27.5625 64 9.1875Q96 -9.1875 128 9.1875L128 64.3125Q96 45.9375 64 64.3125Q32 82.6875 0 64.3125L0 9.1875Z " stroke="none" fill-opacity="1" fill="#4caf50"></path><g id="SvgjsG1307"><text id="SvgjsText1308" font-family="微软雅黑" text-anchor="middle" font-size="14px" width="128px" fill="#ffffff" font-weight="400" align="middle" lineHeight="125%" font-style="" opacity="1" y="25.500000000000004" transform="rotate(0)"><tspan id="SvgjsTspan1309" dy="17" x="64"><tspan id="SvgjsTspan1310" style="text-decoration:;">Adapter</tspan></tspan></text></g></g><g id="SvgjsG1311"><path id="SvgjsPath1312" d="M162.4333333333334 46.5L225.91666666666674 46.5L225.91666666666674 147.25L289.4 147.25 " stroke="#2196f3" stroke-width="2" fill="none" marker-start="url(#SvgjsMarker1313)" marker-end="url(#SvgjsMarker1315)"></path></g><g id="SvgjsG1317"><path id="SvgjsPath1318" d="M162.4333333333334 112L225.91666666666674 112L225.91666666666674 147.25L289.4 147.25 " stroke="#2196f3" stroke-width="2" fill="none" marker-start="url(#SvgjsMarker1319)" marker-end="url(#SvgjsMarker1321)"></path></g><g id="SvgjsG1323"><path id="SvgjsPath1324" d="M162.4333333333334 177.5L225.91666666666674 177.5L225.91666666666674 147.25L289.4 147.25 " stroke="#2196f3" stroke-width="2" fill="none" marker-start="url(#SvgjsMarker1325)" marker-end="url(#SvgjsMarker1327)"></path></g><g id="SvgjsG1329"><path id="SvgjsPath1330" d="M163.4333333333334 243L225.91666666666674 243L225.91666666666674 147.25L289.4 147.25 " stroke-dasharray="8,5" stroke="#2196f3" stroke-width="2" fill="none" marker-start="url(#SvgjsMarker1331)" marker-end="url(#SvgjsMarker1333)"></path></g><g id="SvgjsG1335" transform="translate(545,112.25)"><path id="SvgjsPath1336" d="M0 0L169 0L169 70L0 70Z " stroke="none" fill-opacity="1" fill="#f44336"></path><g id="SvgjsG1337"><text id="SvgjsText1338" font-family="微软雅黑" text-anchor="middle" font-size="14px" width="149px" fill="#ffffff" font-weight="400" align="middle" lineHeight="125%" font-style="" opacity="1" y="23.75" transform="rotate(0)"><tspan id="SvgjsTspan1339" dy="17" x="84.5"><tspan id="SvgjsTspan1340" style="text-decoration:;">CenterProcessor</tspan></tspan></text></g></g><g id="SvgjsG1341"><path id="SvgjsPath1342" d="M420 135L482.5 135L482.5 135L542.4 135 " stroke-dasharray="8,5" stroke="#f44336" stroke-width="2" fill="none" marker-end="url(#SvgjsMarker1343)"></path></g><g id="SvgjsG1345"><path id="SvgjsPath1346" d="M545 159L482.5 159L482.5 159L422.6 159 " stroke-dasharray="8,5" stroke="#9c27b0" stroke-width="2" fill="none" marker-end="url(#SvgjsMarker1347)"></path></g><g id="SvgjsG1349" transform="translate(583.5,234.5)"><path id="SvgjsPath1350" d="M0 0L92 0L92 30L0 30Z " stroke="none" fill-opacity="1" fill="#9c27b0"></path><g id="SvgjsG1351"><text id="SvgjsText1352" font-family="微软雅黑" text-anchor="middle" font-size="14px" width="72px" fill="#ffffff" font-weight="400" align="middle" lineHeight="125%" font-style="" opacity="1" y="3.75" transform="rotate(0)"><tspan id="SvgjsTspan1353" dy="17" x="46"><tspan id="SvgjsTspan1354" style="text-decoration:;">AmiyaBot</tspan></tspan></text></g></g><g id="SvgjsG1355"><path id="SvgjsPath1356" d="M615 182L615 208.5L615 208.5L615 232.39999999999998 " stroke-dasharray="8,5" stroke="#f44336" stroke-width="2" fill="none" marker-end="url(#SvgjsMarker1357)"></path></g><g id="SvgjsG1359"><path id="SvgjsPath1360" d="M645 235L645 208.5L645 208.5L645 184.60000000000002 " stroke-dasharray="8,5" stroke="#9c27b0" stroke-width="2" fill="none" marker-end="url(#SvgjsMarker1361)"></path></g><g id="SvgjsG1363"><path id="SvgjsPath1364" d="M583.5 249.5L356 249.5L356 177.41250000000002 " stroke-dasharray="8,5" stroke="#9c27b0" stroke-width="2" fill="none" marker-end="url(#SvgjsMarker1365)"></path></g></svg>