<?xml version="1.0" standalone="no"?><?xml-stylesheet type="text/css" href="https://www.processon.com/themes/default/mind/icons/icons.css" ?><!DOCTYPE svg PUBLIC "-//W3C//DTD SVG 1.1//EN" "http://www.w3.org/Graphics/SVG/1.1/DTD/svg11.dtd"><svg id="SvgjsSvg1273" xmlns="http://www.w3.org/2000/svg" version="1.1" xmlns:xlink="http://www.w3.org/1999/xlink" xmlns:svgjs="http://svgjs.com/svgjs" width="1099.5" height="479"><rect fill="url(#pattern_mark)" transform="translate(-57.5,-199)" width="1727" height="946" id="rect_mark" pointer-events="none"></rect><defs id="SvgjsDefs1274"><marker id="SvgjsMarker1317" markerWidth="14" markerHeight="10" refX="10" refY="5" viewBox="0 0 14 10" orient="auto" markerUnits="userSpaceOnUse" stroke-dasharray="0,0"><path id="SvgjsPath1318" d="M0 0L14 5L0 10L0 0 " fill="#4caf50" stroke="#4caf50" stroke-width="1"></path></marker><marker id="SvgjsMarker1321" markerWidth="14" markerHeight="10" refX="10" refY="5" viewBox="0 0 14 10" orient="auto" markerUnits="userSpaceOnUse" stroke-dasharray="0,0"><path id="SvgjsPath1322" d="M0 0L14 5L0 10L0 0 " fill="#f44336" stroke="#f44336" stroke-width="1"></path></marker><marker id="SvgjsMarker1325" markerWidth="14" markerHeight="10" refX="10" refY="5" viewBox="0 0 14 10" orient="auto" markerUnits="userSpaceOnUse" stroke-dasharray="0,0"><path id="SvgjsPath1326" d="M0 0L14 5L0 10L0 0 " fill="#2196f3" stroke="#2196f3" stroke-width="1"></path></marker><marker id="SvgjsMarker1329" markerWidth="14" markerHeight="10" refX="10" refY="5" viewBox="0 0 14 10" orient="auto" markerUnits="userSpaceOnUse" stroke-dasharray="0,0"><path id="SvgjsPath1330" d="M0 0L14 5L0 10L0 0 " fill="#2196f3" stroke="#2196f3" stroke-width="1"></path></marker><marker id="SvgjsMarker1333" markerWidth="14" markerHeight="10" refX="10" refY="5" viewBox="0 0 14 10" orient="auto" markerUnits="userSpaceOnUse" stroke-dasharray="0,0"><path id="SvgjsPath1334" d="M0 0L14 5L0 10L0 0 " fill="#2196f3" stroke="#2196f3" stroke-width="1"></path></marker><marker id="SvgjsMarker1369" markerWidth="14" markerHeight="10" refX="10" refY="5" viewBox="0 0 14 10" orient="auto" markerUnits="userSpaceOnUse" stroke-dasharray="0,0"><path id="SvgjsPath1370" d="M0 0L14 5L0 10L0 0 " fill="#f44336" stroke="#f44336" stroke-width="1"></path></marker><marker id="SvgjsMarker1379" markerWidth="14" markerHeight="10" refX="10" refY="5" viewBox="0 0 14 10" orient="auto" markerUnits="userSpaceOnUse" stroke-dasharray="0,0"><path id="SvgjsPath1380" d="M0 0L14 5L0 10L0 0 " fill="#f44336" stroke="#f44336" stroke-width="1"></path></marker><marker id="SvgjsMarker1389" markerWidth="14" markerHeight="10" refX="10" refY="5" viewBox="0 0 14 10" orient="auto" markerUnits="userSpaceOnUse" stroke-dasharray="0,0"><path id="SvgjsPath1390" d="M0 0L14 5L0 10L0 0 " fill="#2196f3" stroke="#2196f3" stroke-width="1"></path></marker><marker id="SvgjsMarker1393" markerWidth="14" markerHeight="10" refX="10" refY="5" viewBox="0 0 14 10" orient="auto" markerUnits="userSpaceOnUse" stroke-dasharray="0,0"><path id="SvgjsPath1394" d="M0 0L14 5L0 10L0 0 " fill="#2196f3" stroke="#2196f3" stroke-width="1"></path></marker><marker id="SvgjsMarker1397" markerWidth="14" markerHeight="10" refX="10" refY="5" viewBox="0 0 14 10" orient="auto" markerUnits="userSpaceOnUse" stroke-dasharray="0,0"><path id="SvgjsPath1398" d="M0 0L14 5L0 10L0 0 " fill="#f44336" stroke="#f44336" stroke-width="1"></path></marker><pattern patternUnits="userSpaceOnUse" id="pattern_mark" width="300" height="300"><text x="-50" y="150" fill="rgba(229,229,229,0.8)" font-size="18" transform="rotate(-45, 150, 150)"></text></pattern></defs><g id="SvgjsG1275" transform="translate(224.5,25)"><path id="SvgjsPath1276" d="M0 0L522 0L522 429L0 429Z " stroke-dasharray="3,4" stroke="rgba(244,67,54,1)" stroke-width="2" fill="none"></path><g id="SvgjsG1277"><text id="SvgjsText1278" font-family="微软雅黑" text-anchor="middle" font-size="14px" width="502px" fill="#323232" font-weight="400" align="middle" lineHeight="125%" font-style="" opacity="1" y="203.25" transform="rotate(0)"></text></g></g><g id="SvgjsG1279" transform="translate(236.5,26)"><path id="SvgjsPath1280" d="M0 0L120 0L120 40L0 40Z " stroke="none" fill="none"></path><g id="SvgjsG1281"><text id="SvgjsText1282" font-family="微软雅黑" text-anchor="middle" font-size="14px" width="120px" fill="#f44336" font-weight="700" align="middle" lineHeight="125%" font-style="" opacity="1" y="8.75" transform="rotate(0)"><tspan id="SvgjsTspan1283" dy="17" x="60"><tspan id="SvgjsTspan1284" style="text-decoration:;">CenterProcessor</tspan></tspan></text></g></g><g id="SvgjsG1285" transform="translate(25,201.75)"><path id="SvgjsPath1286" d="M0 9.1875Q32 27.5625 64 9.1875Q96 -9.1875 128 9.1875L128 64.3125Q96 45.9375 64 64.3125Q32 82.6875 0 64.3125L0 9.1875Z " stroke="none" fill-opacity="1" fill="#4caf50"></path><g id="SvgjsG1287"><text id="SvgjsText1288" font-family="微软雅黑" text-anchor="middle" font-size="14px" width="128px" fill="#ffffff" font-weight="400" align="middle" lineHeight="125%" font-style="" opacity="1" y="25.500000000000004" transform="rotate(0)"><tspan id="SvgjsTspan1289" dy="17" x="64"><tspan id="SvgjsTspan1290" style="text-decoration:;">Adapter</tspan></tspan></text></g></g><g id="SvgjsG1291" transform="translate(260.1931849665293,235.3333333333331)"><path id="SvgjsPath1292" d="M0 37.58333333333343L53.75 0L107.5 37.58333333333343L53.75 75.16666666666686L0 37.58333333333343Z " stroke="rgba(244,67,54,1)" stroke-width="2" fill="none"></path><g id="SvgjsG1293"><text id="SvgjsText1294" font-family="微软雅黑" text-anchor="middle" font-size="14px" width="88px" fill="#f44336" font-weight="400" align="middle" lineHeight="125%" font-style="" opacity="1" y="26.333333333333428" transform="rotate(0)"><tspan id="SvgjsTspan1295" dy="17" x="54"><tspan id="SvgjsTspan1296" style="text-decoration:;">Type Check</tspan></tspan></text></g></g><g id="SvgjsG1297" transform="translate(263.9431849665293,115.25000000000017)"><path id="SvgjsPath1298" d="M0 0L100 0L100 45L0 45Z " stroke="rgba(33,150,243,1)" stroke-width="2" fill="none"></path><g id="SvgjsG1299"><text id="SvgjsText1300" font-family="微软雅黑" text-anchor="middle" font-size="14px" width="80px" fill="#2196f3" font-weight="400" align="middle" lineHeight="125%" font-style="" opacity="1" y="11.25" transform="rotate(0)"><tspan id="SvgjsTspan1301" dy="17" x="50"><tspan id="SvgjsTspan1302" style="text-decoration:;">middleware</tspan></tspan></text></g></g><g id="SvgjsG1303" transform="translate(604.829554899588,115.25000000000017)"><path id="SvgjsPath1304" d="M0 0L100 0L100 45L0 45Z " stroke="rgba(33,150,243,1)" stroke-width="2" fill="none"></path><g id="SvgjsG1305"><text id="SvgjsText1306" font-family="微软雅黑" text-anchor="middle" font-size="14px" width="80px" fill="#2196f3" font-weight="400" align="middle" lineHeight="125%" font-style="" opacity="1" y="11.25" transform="rotate(0)"><tspan id="SvgjsTspan1307" dy="17" x="50"><tspan id="SvgjsTspan1308" style="text-decoration:;">Execute</tspan></tspan></text></g></g><g id="SvgjsG1309" transform="translate(439.38636993305863,102.75000000000017)"><path id="SvgjsPath1310" d="M0 35L45 0L90 35L45 70L0 35Z " stroke="rgba(33,150,243,1)" stroke-width="2" fill="none"></path><g id="SvgjsG1311"><text id="SvgjsText1312" font-family="微软雅黑" text-anchor="middle" font-size="14px" width="70px" fill="#2196f3" font-weight="400" align="middle" lineHeight="125%" font-style="" opacity="1" y="23.75" transform="rotate(0)"><tspan id="SvgjsTspan1313" dy="17" x="45"><tspan id="SvgjsTspan1314" style="text-decoration:;">Choice</tspan></tspan></text></g></g><g id="SvgjsG1315"><path id="SvgjsPath1316" d="M153 238.5L206.59659248326466 238.5L206.59659248326466 272.9166666666665L256.5931849665293 272.9166666666665 " stroke="#4caf50" stroke-width="2" fill="none" marker-end="url(#SvgjsMarker1317)"></path></g><g id="SvgjsG1319"><path id="SvgjsPath1320" d="M313.9431849665293 234.3333333333331L313.9431849665293 197.79166666666663L313.9431849665293 197.79166666666663L313.9431849665293 163.8500000000002 " stroke="#f44336" stroke-width="2" fill="none" marker-end="url(#SvgjsMarker1321)"></path></g><g id="SvgjsG1323"><path id="SvgjsPath1324" d="M364.9431849665293 137.75000000000017L401.664777449794 137.75000000000017L401.664777449794 137.75000000000017L435.7863699330586 137.75000000000017 " stroke="#2196f3" stroke-width="2" fill="none" marker-end="url(#SvgjsMarker1325)"></path></g><g id="SvgjsG1327"><path id="SvgjsPath1328" d="M530.3863699330586 137.75000000000017L567.1079624163233 137.75000000000017L567.1079624163233 137.75000000000017L601.2295548995879 137.75000000000017 " stroke="#2196f3" stroke-width="2" fill="none" marker-end="url(#SvgjsMarker1329)"></path></g><g id="SvgjsG1331"><path id="SvgjsPath1332" d="M654.829554899588 114.25000000000017L654.829554899588 85.25000000000017L89 85.25000000000017L89 208.33749999999998 " stroke-dasharray="8,5" stroke="#2196f3" stroke-width="2" fill="none" marker-end="url(#SvgjsMarker1333)"></path></g><g id="SvgjsG1335" transform="translate(809.5,98.5)"><path id="SvgjsPath1336" d="M0 0L265 0L265 282L0 282Z " stroke-dasharray="3,4" stroke="rgba(156,39,176,1)" stroke-width="2" fill="none"></path><g id="SvgjsG1337"><text id="SvgjsText1338" font-family="Garamond" text-anchor="middle" font-size="14px" width="245px" fill="#ffffff" font-weight="400" align="middle" lineHeight="125%" font-style="" opacity="1" y="129.75" transform="rotate(0)"></text></g></g><g id="SvgjsG1339" transform="translate(796,96.5)"><path id="SvgjsPath1340" d="M0 0L120 0L120 40L0 40Z " stroke="none" fill="none"></path><g id="SvgjsG1341"><text id="SvgjsText1342" font-family="微软雅黑" text-anchor="middle" font-size="14px" width="120px" fill="#9c27b0" font-weight="700" align="middle" lineHeight="125%" font-style="" opacity="1" y="8.75" transform="rotate(0)"><tspan id="SvgjsTspan1343" dy="17" x="60"><tspan id="SvgjsTspan1344" style="text-decoration:;">AmiyaBot</tspan></tspan></text></g></g><g id="SvgjsG1345" transform="translate(834,138.50000000000006)"><path id="SvgjsPath1346" d="M0 0L216 0L216 201.99999999999994L0 201.99999999999994Z " stroke-dasharray="3,4" stroke="rgba(245,127,23,1)" stroke-width="2" fill="none"></path><g id="SvgjsG1347"><text id="SvgjsText1348" font-family="微软雅黑" text-anchor="middle" font-size="13px" width="196px" fill="#323232" font-weight="400" align="middle" lineHeight="125%" font-style="" opacity="1" y="90.37499999999997" transform="rotate(0)"></text></g></g><g id="SvgjsG1349" transform="translate(866,200.91666666666657)"><path id="SvgjsPath1350" d="M0 0L152 0L152 44L0 44Z " stroke="none" fill-opacity="1" fill="#f57f17"></path><g id="SvgjsG1351"><text id="SvgjsText1352" font-family="微软雅黑" text-anchor="middle" font-size="13px" width="132px" fill="#ffffff" font-weight="400" align="middle" lineHeight="125%" font-style="" opacity="1" y="11.375" transform="rotate(0)"><tspan id="SvgjsTspan1353" dy="16" x="76"><tspan id="SvgjsTspan1354" style="text-decoration:;">message_handlers</tspan></tspan></text></g></g><g id="SvgjsG1355" transform="translate(866,266.5)"><path id="SvgjsPath1356" d="M0 0L152 0L152 44L0 44Z " stroke="none" fill-opacity="1" fill="#f57f17"></path><g id="SvgjsG1357"><text id="SvgjsText1358" font-family="微软雅黑" text-anchor="middle" font-size="13px" width="132px" fill="#ffffff" font-weight="400" align="middle" lineHeight="125%" font-style="" opacity="1" y="11.375" transform="rotate(0)"><tspan id="SvgjsTspan1359" dy="16" x="76"><tspan id="SvgjsTspan1360" style="text-decoration:;">event_handlers</tspan></tspan></text></g></g><g id="SvgjsG1361" transform="translate(846,140.50000000000006)"><path id="SvgjsPath1362" d="M0 0L144 0L144 38L0 38Z " stroke="none" fill="none"></path><g id="SvgjsG1363"><text id="SvgjsText1364" font-family="微软雅黑" text-anchor="middle" font-size="14px" width="144px" fill="#f57f17" font-weight="700" align="middle" lineHeight="125%" font-style="" opacity="1" y="7.75" transform="rotate(0)"><tspan id="SvgjsTspan1365" dy="17" x="72"><tspan id="SvgjsTspan1366" style="text-decoration:;">BotHandlerFactory</tspan></tspan></text></g></g><g id="SvgjsG1367"><path id="SvgjsPath1368" d="M866 222.91666666666657L484.38636993305863 222.91666666666657L484.38636993305863 176.3500000000002 " stroke-dasharray="8,5" stroke="#f44336" stroke-width="2" fill="none" marker-end="url(#SvgjsMarker1369)"></path></g><g id="SvgjsG1371" transform="translate(439.38636993305863,330.5)"><path id="SvgjsPath1372" d="M0 35L45 0L90 35L45 70L0 35Z " stroke="rgba(33,150,243,1)" stroke-width="2" fill="none"></path><g id="SvgjsG1373"><text id="SvgjsText1374" font-family="微软雅黑" text-anchor="middle" font-size="14px" width="70px" fill="#2196f3" font-weight="400" align="middle" lineHeight="125%" font-style="" opacity="1" y="23.75" transform="rotate(0)"><tspan id="SvgjsTspan1375" dy="17" x="45"><tspan id="SvgjsTspan1376" style="text-decoration:;">Choice</tspan></tspan></text></g></g><g id="SvgjsG1377"><path id="SvgjsPath1378" d="M313.9431849665293 311.5L313.9431849665293 365.5L435.7863699330586 365.5 " stroke="#f44336" stroke-width="2" fill="none" marker-end="url(#SvgjsMarker1379)"></path></g><g id="SvgjsG1381" transform="translate(604.829554899588,343)"><path id="SvgjsPath1382" d="M0 0L100 0L100 45L0 45Z " stroke="rgba(33,150,243,1)" stroke-width="2" fill="none"></path><g id="SvgjsG1383"><text id="SvgjsText1384" font-family="微软雅黑" text-anchor="middle" font-size="14px" width="80px" fill="#2196f3" font-weight="400" align="middle" lineHeight="125%" font-style="" opacity="1" y="11.25" transform="rotate(0)"><tspan id="SvgjsTspan1385" dy="17" x="50"><tspan id="SvgjsTspan1386" style="text-decoration:;">Execute</tspan></tspan></text></g></g><g id="SvgjsG1387"><path id="SvgjsPath1388" d="M530.3863699330586 365.5L567.1079624163233 365.5L567.1079624163233 365.5L601.2295548995879 365.5 " stroke="#2196f3" stroke-width="2" fill="none" marker-end="url(#SvgjsMarker1389)"></path></g><g id="SvgjsG1391"><path id="SvgjsPath1392" d="M654.829554899588 389L654.829554899588 418L89 418L89 268.6625 " stroke-dasharray="8,5" stroke="#2196f3" stroke-width="2" fill="none" marker-end="url(#SvgjsMarker1393)"></path></g><g id="SvgjsG1395"><path id="SvgjsPath1396" d="M866 288.5L484.38636993305863 288.5L484.38636993305863 326.9 " stroke-dasharray="8,5" stroke="#f44336" stroke-width="2" fill="none" marker-end="url(#SvgjsMarker1397)"></path></g><g id="SvgjsG1399" transform="translate(286.9431849665293,178.50000000000006)"><path id="SvgjsPath1400" d="M0 0L120 0L120 40L0 40Z " stroke="none" fill="none"></path><g id="SvgjsG1401"><text id="SvgjsText1402" font-family="微软雅黑" text-anchor="middle" font-size="13px" width="120px" fill="#f44336" font-weight="400" align="middle" lineHeight="125%" font-style="" opacity="1" y="9.375" transform="rotate(0)"><tspan id="SvgjsTspan1403" dy="16" x="60"><tspan id="SvgjsTspan1404" style="text-decoration:;">Message</tspan></tspan></text></g></g><g id="SvgjsG1405" transform="translate(304.5,330.5)"><path id="SvgjsPath1406" d="M0 0L120 0L120 40L0 40Z " stroke="none" fill="none"></path><g id="SvgjsG1407"><text id="SvgjsText1408" font-family="微软雅黑" text-anchor="middle" font-size="13px" width="120px" fill="#f44336" font-weight="400" align="middle" lineHeight="125%" font-style="" opacity="1" y="9.375" transform="rotate(0)"><tspan id="SvgjsTspan1409" dy="16" x="60"><tspan id="SvgjsTspan1410" style="text-decoration:;">Event</tspan></tspan></text></g></g></svg>