<?xml version="1.0" standalone="no"?><?xml-stylesheet type="text/css" href="https://www.processon.com/themes/default/mind/icons/icons.css" ?><!DOCTYPE svg PUBLIC "-//W3C//DTD SVG 1.1//EN" "http://www.w3.org/Graphics/SVG/1.1/DTD/svg11.dtd"><svg id="SvgjsSvg1000" xmlns="http://www.w3.org/2000/svg" version="1.1" xmlns:xlink="http://www.w3.org/1999/xlink" xmlns:svgjs="http://svgjs.com/svgjs" width="885.5" height="433"><rect fill="url(#pattern_mark)" transform="translate(-53,-76)" width="1050" height="1500" id="rect_mark" pointer-events="none"></rect><defs id="SvgjsDefs1001"><marker id="SvgjsMarker1063" markerWidth="14" markerHeight="10" refX="10" refY="5" viewBox="0 0 14 10" orient="auto" markerUnits="userSpaceOnUse" stroke-dasharray="0,0"><path id="SvgjsPath1064" d="M0 0L14 5L0 10L0 0 " fill="#4caf50" stroke="#4caf50" stroke-width="1"></path></marker><marker id="SvgjsMarker1067" markerWidth="14" markerHeight="10" refX="10" refY="5" viewBox="0 0 14 10" orient="auto" markerUnits="userSpaceOnUse" stroke-dasharray="0,0"><path id="SvgjsPath1068" d="M0 0L14 5L0 10L0 0 " fill="#4caf50" stroke="#4caf50" stroke-width="1"></path></marker><marker id="SvgjsMarker1071" markerWidth="14" markerHeight="10" refX="10" refY="5" viewBox="0 0 14 10" orient="auto" markerUnits="userSpaceOnUse" stroke-dasharray="0,0"><path id="SvgjsPath1072" d="M0 0L14 5L0 10L0 0 " fill="#4caf50" stroke="#4caf50" stroke-width="1"></path></marker><marker id="SvgjsMarker1081" markerWidth="14" markerHeight="10" refX="10" refY="5" viewBox="0 0 14 10" orient="auto" markerUnits="userSpaceOnUse" stroke-dasharray="0,0"><path id="SvgjsPath1082" d="M0 0L14 5L0 10L0 0 " fill="#f44336" stroke="#f44336" stroke-width="1"></path></marker><marker id="SvgjsMarker1085" markerWidth="14" markerHeight="10" refX="10" refY="5" viewBox="0 0 14 10" orient="auto" markerUnits="userSpaceOnUse" stroke-dasharray="0,0"><path id="SvgjsPath1086" d="M0 0L14 5L0 10L0 0 " fill="#f44336" stroke="#f44336" stroke-width="1"></path></marker><marker id="SvgjsMarker1089" markerWidth="14" markerHeight="10" refX="10" refY="5" viewBox="0 0 14 10" orient="auto" markerUnits="userSpaceOnUse" stroke-dasharray="0,0"><path id="SvgjsPath1090" d="M0 0L14 5L0 10L0 0 " fill="#f44336" stroke="#f44336" stroke-width="1"></path></marker><marker id="SvgjsMarker1103" markerWidth="14" markerHeight="10" refX="10" refY="5" viewBox="0 0 14 10" orient="auto" markerUnits="userSpaceOnUse" stroke-dasharray="0,0"><path id="SvgjsPath1104" d="M0 0L14 5L0 10L0 0 " fill="#2196f3" stroke="#2196f3" stroke-width="1"></path></marker><marker id="SvgjsMarker1107" markerWidth="14" markerHeight="10" refX="10" refY="5" viewBox="0 0 14 10" orient="auto" markerUnits="userSpaceOnUse" stroke-dasharray="0,0"><path id="SvgjsPath1108" d="M0 0L14 5L0 10L0 0 " fill="#f44336" stroke="#f44336" stroke-width="1"></path></marker><pattern patternUnits="userSpaceOnUse" id="pattern_mark" width="300" height="300"><text x="-50" y="150" fill="rgba(229,229,229,0.8)" font-size="18" transform="rotate(-45, 150, 150)"></text></pattern></defs><g id="SvgjsG1007" transform="translate(38.5,27)"><path id="SvgjsPath1008" d="M0 0L605.5 0L605.5 381L0 381Z " stroke-dasharray="3,4" stroke="rgba(156,39,176,1)" stroke-width="2" fill="none"></path><g id="SvgjsG1009"><text id="SvgjsText1010" font-family="Garamond" text-anchor="middle" font-size="14px" width="586px" fill="#ffffff" font-weight="400" align="middle" lineHeight="125%" font-style="" opacity="1" y="179.25" transform="rotate(0)"></text></g></g><g id="SvgjsG1011" transform="translate(25,25)"><path id="SvgjsPath1012" d="M0 0L120 0L120 40L0 40Z " stroke="none" fill="none"></path><g id="SvgjsG1013"><text id="SvgjsText1014" font-family="微软雅黑" text-anchor="middle" font-size="14px" width="120px" fill="#9c27b0" font-weight="700" align="middle" lineHeight="125%" font-style="" opacity="1" y="8.75" transform="rotate(0)"><tspan id="SvgjsTspan1015" dy="17" x="60"><tspan id="SvgjsTspan1016" style="text-decoration:;">AmiyaBot</tspan></tspan></text></g></g><g id="SvgjsG1017" transform="translate(338,52)"><path id="SvgjsPath1018" d="M0 0L214 0L214 331L0 331Z " stroke-dasharray="3,4" stroke="rgba(245,127,23,1)" stroke-width="2" fill="none"></path><g id="SvgjsG1019"><text id="SvgjsText1020" font-family="微软雅黑" text-anchor="middle" font-size="13px" width="194px" fill="#323232" font-weight="400" align="middle" lineHeight="125%" font-style="" opacity="1" y="154.875" transform="rotate(0)"></text></g></g><g id="SvgjsG1021" transform="translate(99,113)"><path id="SvgjsPath1022" d="M0 0L152 0L152 44L0 44Z " stroke="none" fill-opacity="1" fill="#2196f3"></path><g id="SvgjsG1023"><text id="SvgjsText1024" font-family="微软雅黑" text-anchor="middle" font-size="13px" width="132px" fill="#ffffff" font-weight="400" align="middle" lineHeight="125%" font-style="" opacity="1" y="11.375" transform="rotate(0)"><tspan id="SvgjsTspan1025" dy="16" x="76"><tspan id="SvgjsTspan1026" style="text-decoration:;">@bot.on_event</tspan></tspan></text></g></g><g id="SvgjsG1027" transform="translate(99,179)"><path id="SvgjsPath1028" d="M0 0L152 0L152 44L0 44Z " stroke="none" fill-opacity="1" fill="#4caf50"></path><g id="SvgjsG1029"><text id="SvgjsText1030" font-family="微软雅黑" text-anchor="middle" font-size="13px" width="132px" fill="#ffffff" font-weight="400" align="middle" lineHeight="125%" font-style="" opacity="1" y="11.375" transform="rotate(0)"><tspan id="SvgjsTspan1031" dy="16" x="76"><tspan id="SvgjsTspan1032" style="text-decoration:;">@bot.on_message</tspan></tspan></text></g></g><g id="SvgjsG1033" transform="translate(99,245)"><path id="SvgjsPath1034" d="M0 0L152 0L152 44L0 44Z " stroke="none" fill-opacity="1" fill="#4caf50"></path><g id="SvgjsG1035"><text id="SvgjsText1036" font-family="微软雅黑" text-anchor="middle" font-size="13px" width="132px" fill="#ffffff" font-weight="400" align="middle" lineHeight="125%" font-style="" opacity="1" y="11.375" transform="rotate(0)"><tspan id="SvgjsTspan1037" dy="16" x="76"><tspan id="SvgjsTspan1038" style="text-decoration:;">@bot.on_message</tspan></tspan></text></g></g><g id="SvgjsG1039" transform="translate(99,311)"><path id="SvgjsPath1040" d="M0 0L152 0L152 44L0 44Z " stroke-dasharray="10,6" stroke="rgba(76,175,80,1)" stroke-width="2" fill="none"></path><g id="SvgjsG1041"><text id="SvgjsText1042" font-family="微软雅黑" text-anchor="middle" font-size="13px" width="132px" fill="#ffffff" font-weight="400" align="middle" lineHeight="125%" font-style="" opacity="1" y="11.375" transform="rotate(0)"></text></g></g><g id="SvgjsG1043" transform="translate(369,113)"><path id="SvgjsPath1044" d="M0 0L152 0L152 44L0 44Z " stroke="none" fill-opacity="1" fill="#f57f17"></path><g id="SvgjsG1045"><text id="SvgjsText1046" font-family="微软雅黑" text-anchor="middle" font-size="13px" width="132px" fill="#ffffff" font-weight="400" align="middle" lineHeight="125%" font-style="" opacity="1" y="11.375" transform="rotate(0)"><tspan id="SvgjsTspan1047" dy="16" x="76"><tspan id="SvgjsTspan1048" style="text-decoration:;">event_handlers</tspan></tspan></text></g></g><g id="SvgjsG1049" transform="translate(369,179)"><path id="SvgjsPath1050" d="M0 0L152 0L152 44L0 44Z " stroke="none" fill-opacity="1" fill="#f57f17"></path><g id="SvgjsG1051"><text id="SvgjsText1052" font-family="微软雅黑" text-anchor="middle" font-size="13px" width="132px" fill="#ffffff" font-weight="400" align="middle" lineHeight="125%" font-style="" opacity="1" y="11.375" transform="rotate(0)"><tspan id="SvgjsTspan1053" dy="16" x="76"><tspan id="SvgjsTspan1054" style="text-decoration:;">message_handlers</tspan></tspan></text></g></g><g id="SvgjsG1055" transform="translate(369,245)"><path id="SvgjsPath1056" d="M0 0L152 0L152 44L0 44Z " stroke="none" fill-opacity="1" fill="#f57f17"></path><g id="SvgjsG1057"><text id="SvgjsText1058" font-family="微软雅黑" text-anchor="middle" font-size="13px" width="132px" fill="#ffffff" font-weight="400" align="middle" lineHeight="125%" font-style="" opacity="1" y="11.375" transform="rotate(0)"><tspan id="SvgjsTspan1059" dy="16" x="76"><tspan id="SvgjsTspan1060" style="text-decoration:;">exception_handlers</tspan></tspan></text></g></g><g id="SvgjsG1061"><path id="SvgjsPath1062" d="M251 201L310 201L310 201L366.4 201 " stroke="#4caf50" stroke-width="2" fill="none" marker-end="url(#SvgjsMarker1063)"></path></g><g id="SvgjsG1065"><path id="SvgjsPath1066" d="M251 267L310 267L310 201L366.4 201 " stroke="#4caf50" stroke-width="2" fill="none" marker-end="url(#SvgjsMarker1067)"></path></g><g id="SvgjsG1069"><path id="SvgjsPath1070" d="M252 333L310 333L310 201L366.4 201 " stroke-dasharray="8,5" stroke="#4caf50" stroke-width="2" fill="none" marker-end="url(#SvgjsMarker1071)"></path></g><g id="SvgjsG1073" transform="translate(691.5,166)"><path id="SvgjsPath1074" d="M0 0L169 0L169 70L0 70Z " stroke="none" fill-opacity="1" fill="#f44336"></path><g id="SvgjsG1075"><text id="SvgjsText1076" font-family="微软雅黑" text-anchor="middle" font-size="14px" width="149px" fill="#ffffff" font-weight="400" align="middle" lineHeight="125%" font-style="" opacity="1" y="23.75" transform="rotate(0)"><tspan id="SvgjsTspan1077" dy="17" x="84.5"><tspan id="SvgjsTspan1078" style="text-decoration:;">CenterProcessor</tspan></tspan></text></g></g><g id="SvgjsG1079"><path id="SvgjsPath1080" d="M521 201L606.25 201L606.25 201L688.9 201 " stroke-dasharray="8,5" stroke="#f44336" stroke-width="2" fill="none" marker-end="url(#SvgjsMarker1081)"></path></g><g id="SvgjsG1083"><path id="SvgjsPath1084" d="M521 135L606.25 135L606.25 201L688.9 201 " stroke-dasharray="8,5" stroke="#f44336" stroke-width="2" fill="none" marker-end="url(#SvgjsMarker1085)"></path></g><g id="SvgjsG1087"><path id="SvgjsPath1088" d="M521 267L606.25 267L606.25 201L688.9 201 " stroke-dasharray="8,5" stroke="#f44336" stroke-width="2" fill="none" marker-end="url(#SvgjsMarker1089)"></path></g><g id="SvgjsG1091" transform="translate(349,53)"><path id="SvgjsPath1092" d="M0 0L144 0L144 38L0 38Z " stroke="none" fill="none"></path><g id="SvgjsG1093"><text id="SvgjsText1094" font-family="微软雅黑" text-anchor="middle" font-size="14px" width="144px" fill="#f57f17" font-weight="700" align="middle" lineHeight="125%" font-style="" opacity="1" y="7.75" transform="rotate(0)"><tspan id="SvgjsTspan1095" dy="17" x="72"><tspan id="SvgjsTspan1096" style="text-decoration:;">BotHandlerFactory</tspan></tspan></text></g></g><g id="SvgjsG1097" transform="translate(369,311)"><path id="SvgjsPath1098" d="M0 0L152 0L152 44L0 44Z " stroke-dasharray="10,6" stroke="rgba(245,127,23,1)" stroke-width="2" fill="none"></path><g id="SvgjsG1099"><text id="SvgjsText1100" font-family="微软雅黑" text-anchor="middle" font-size="13px" width="132px" fill="#ffffff" font-weight="400" align="middle" lineHeight="125%" font-style="" opacity="1" y="11.375" transform="rotate(0)"></text></g></g><g id="SvgjsG1101"><path id="SvgjsPath1102" d="M251 135L310 135L310 135L366.4 135 " stroke="#2196f3" stroke-width="2" fill="none" marker-end="url(#SvgjsMarker1103)"></path></g><g id="SvgjsG1105"><path id="SvgjsPath1106" d="M522 333L606.25 333L606.25 201L688.9 201 " stroke-dasharray="8,5" stroke="#f44336" stroke-width="2" fill="none" marker-end="url(#SvgjsMarker1107)"></path></g></svg>