<svg id="SvgjsSvg1000" xmlns="http://www.w3.org/2000/svg" version="1.1" xmlns:xlink="http://www.w3.org/1999/xlink" xmlns:svgjs="http://svgjs.com/svgjs" width="786.5" height="824"><defs id="SvgjsDefs1001"><marker id="SvgjsMarker1039" markerWidth="14" markerHeight="10" refX="10" refY="5" viewBox="0 0 14 10" orient="auto" markerUnits="userSpaceOnUse" stroke-dasharray="0,0"><path id="SvgjsPath1040" d="M0 0L14 5L0 10L0 0 " fill="#323232" stroke="#323232" stroke-width="1"></path></marker><marker id="SvgjsMarker1043" markerWidth="14" markerHeight="10" refX="10" refY="5" viewBox="0 0 14 10" orient="auto" markerUnits="userSpaceOnUse" stroke-dasharray="0,0"><path id="SvgjsPath1044" d="M0 0L14 5L0 10L0 0 " fill="#323232" stroke="#323232" stroke-width="1"></path></marker><marker id="SvgjsMarker1059" markerWidth="14" markerHeight="10" refX="10" refY="5" viewBox="0 0 14 10" orient="auto" markerUnits="userSpaceOnUse" stroke-dasharray="0,0"><path id="SvgjsPath1060" d="M0 0L14 5L0 10L0 0 " fill="#323232" stroke="#323232" stroke-width="1"></path></marker><marker id="SvgjsMarker1069" markerWidth="14" markerHeight="10" refX="10" refY="5" viewBox="0 0 14 10" orient="auto" markerUnits="userSpaceOnUse" stroke-dasharray="0,0"><path id="SvgjsPath1070" d="M0 0L14 5L0 10L0 0 " fill="#323232" stroke="#323232" stroke-width="1"></path></marker><marker id="SvgjsMarker1073" markerWidth="14" markerHeight="10" refX="10" refY="5" viewBox="0 0 14 10" orient="auto" markerUnits="userSpaceOnUse" stroke-dasharray="0,0"><path id="SvgjsPath1074" d="M0 0L14 5L0 10L0 0 " fill="#323232" stroke="#323232" stroke-width="1"></path></marker><marker id="SvgjsMarker1077" markerWidth="14" markerHeight="10" refX="10" refY="5" viewBox="0 0 14 10" orient="auto" markerUnits="userSpaceOnUse" stroke-dasharray="0,0"><path id="SvgjsPath1078" d="M0 0L14 5L0 10L0 0 " fill="#323232" stroke="#323232" stroke-width="1"></path></marker><marker id="SvgjsMarker1085" markerWidth="14" markerHeight="10" refX="10" refY="5" viewBox="0 0 14 10" orient="auto" markerUnits="userSpaceOnUse" stroke-dasharray="0,0"><path id="SvgjsPath1086" d="M0 0L14 5L0 10L0 0 " fill="#000000" stroke="#000000" stroke-width="1"></path></marker><marker id="SvgjsMarker1099" markerWidth="14" markerHeight="10" refX="10" refY="5" viewBox="0 0 14 10" orient="auto" markerUnits="userSpaceOnUse" stroke-dasharray="0,0"><path id="SvgjsPath1100" d="M0 0L14 5L0 10L0 0 " fill="#323232" stroke="#323232" stroke-width="1"></path></marker><marker id="SvgjsMarker1103" markerWidth="14" markerHeight="10" refX="10" refY="5" viewBox="0 0 14 10" orient="auto" markerUnits="userSpaceOnUse" stroke-dasharray="0,0"><path id="SvgjsPath1104" d="M0 0L14 5L0 10L0 0 " fill="#323232" stroke="#323232" stroke-width="1"></path></marker><marker id="SvgjsMarker1113" markerWidth="14" markerHeight="10" refX="10" refY="5" viewBox="0 0 14 10" orient="auto" markerUnits="userSpaceOnUse" stroke-dasharray="0,0"><path id="SvgjsPath1114" d="M0 0L14 5L0 10L0 0 " fill="#323232" stroke="#323232" stroke-width="1"></path></marker><marker id="SvgjsMarker1117" markerWidth="14" markerHeight="10" refX="10" refY="5" viewBox="0 0 14 10" orient="auto" markerUnits="userSpaceOnUse" stroke-dasharray="0,0"><path id="SvgjsPath1118" d="M0 0L14 5L0 10L0 0 " fill="#323232" stroke="#323232" stroke-width="1"></path></marker><marker id="SvgjsMarker1121" markerWidth="14" markerHeight="10" refX="10" refY="5" viewBox="0 0 14 10" orient="auto" markerUnits="userSpaceOnUse" stroke-dasharray="0,0"><path id="SvgjsPath1122" d="M0 0L14 5L0 10L0 0 " fill="#f44336" stroke="#f44336" stroke-width="1"></path></marker><marker id="SvgjsMarker1129" markerWidth="14" markerHeight="10" refX="10" refY="5" viewBox="0 0 14 10" orient="auto" markerUnits="userSpaceOnUse" stroke-dasharray="0,0"><path id="SvgjsPath1130" d="M0 0L14 5L0 10L0 0 " fill="#f44336" stroke="#f44336" stroke-width="1"></path></marker></defs><g id="SvgjsG1007" transform="translate(267,126)"><path id="SvgjsPath1008" d="M15.333333333333334 0L195.66666666666666 0C216.11111111111111 0 216.11111111111111 46 195.66666666666666 46L15.333333333333334 46C-5.111111111111112 46 -5.111111111111112 0 15.333333333333334 0Z " stroke="none" fill-opacity="1" fill="#ba68c8"></path><g id="SvgjsG1009"><text id="SvgjsText1010" font-family="微软雅黑" text-anchor="middle" font-size="13px" width="191px" fill="#ffffff" font-weight="700" align="middle" lineHeight="125%" font-style="" opacity="1" y="12.375" transform="rotate(0)"><tspan id="SvgjsTspan1011" dy="16" x="105.5"><tspan id="SvgjsTspan1012" style="text-decoration:;">message_created</tspan></tspan></text></g></g><g id="SvgjsG1013" transform="translate(77,349)"><path id="SvgjsPath1014" d="M15.333333333333334 0L195.66666666666666 0C216.11111111111111 0 216.11111111111111 46 195.66666666666666 46L15.333333333333334 46C-5.111111111111112 46 -5.111111111111112 0 15.333333333333334 0Z " stroke="none" fill-opacity="1" fill="#ba68c8"></path><g id="SvgjsG1015"><text id="SvgjsText1016" font-family="微软雅黑" text-anchor="middle" font-size="13px" width="191px" fill="#ffffff" font-weight="700" align="middle" lineHeight="125%" font-style="" opacity="1" y="12.375" transform="rotate(0)"><tspan id="SvgjsTspan1017" dy="16" x="105.5"><tspan id="SvgjsTspan1018" style="text-decoration:;">message_before_handle</tspan></tspan></text></g></g><g id="SvgjsG1019" transform="translate(77,450)"><path id="SvgjsPath1020" d="M15.333333333333334 0L195.66666666666666 0C216.11111111111111 0 216.11111111111111 46 195.66666666666666 46L15.333333333333334 46C-5.111111111111112 46 -5.111111111111112 0 15.333333333333334 0Z " stroke="none" fill-opacity="1" fill="#ba68c8"></path><g id="SvgjsG1021"><text id="SvgjsText1022" font-family="微软雅黑" text-anchor="middle" font-size="13px" width="191px" fill="#ffffff" font-weight="700" align="middle" lineHeight="125%" font-style="" opacity="1" y="12.375" transform="rotate(0)"><tspan id="SvgjsTspan1023" dy="16" x="105.5"><tspan id="SvgjsTspan1024" style="text-decoration:;">message_before_send</tspan></tspan></text></g></g><g id="SvgjsG1025" transform="translate(77,652)"><path id="SvgjsPath1026" d="M15.333333333333334 0L195.66666666666666 0C216.11111111111111 0 216.11111111111111 46 195.66666666666666 46L15.333333333333334 46C-5.111111111111112 46 -5.111111111111112 0 15.333333333333334 0Z " stroke="none" fill-opacity="1" fill="#ba68c8"></path><g id="SvgjsG1027"><text id="SvgjsText1028" font-family="微软雅黑" text-anchor="middle" font-size="13px" width="191px" fill="#ffffff" font-weight="700" align="middle" lineHeight="125%" font-style="" opacity="1" y="12.375" transform="rotate(0)"><tspan id="SvgjsTspan1029" dy="16" x="105.5"><tspan id="SvgjsTspan1030" style="text-decoration:;">message_after_send</tspan></tspan></text></g></g><g id="SvgjsG1031" transform="translate(77,753)"><path id="SvgjsPath1032" d="M15.333333333333334 0L195.66666666666666 0C216.11111111111111 0 216.11111111111111 46 195.66666666666666 46L15.333333333333334 46C-5.111111111111112 46 -5.111111111111112 0 15.333333333333334 0Z " stroke="none" fill-opacity="1" fill="#ba68c8"></path><g id="SvgjsG1033"><text id="SvgjsText1034" font-family="微软雅黑" text-anchor="middle" font-size="13px" width="191px" fill="#ffffff" font-weight="700" align="middle" lineHeight="125%" font-style="" opacity="1" y="12.375" transform="rotate(0)"><tspan id="SvgjsTspan1035" dy="16" x="105.5"><tspan id="SvgjsTspan1036" style="text-decoration:;">message_after_handle</tspan></tspan></text></g></g><g id="SvgjsG1037"><path id="SvgjsPath1038" d="M182.5 395L182.5 422.5L182.5 422.5L182.5 447.4 " stroke="#323232" stroke-width="2" fill="none" marker-end="url(#SvgjsMarker1039)"></path></g><g id="SvgjsG1041"><path id="SvgjsPath1042" d="M182.5 698L182.5 725.5L182.5 725.5L182.5 750.4 " stroke="#323232" stroke-width="2" fill="none" marker-end="url(#SvgjsMarker1043)"></path></g><g id="SvgjsG1045" transform="translate(457,349)"><path id="SvgjsPath1046" d="M15.333333333333334 0L195.66666666666666 0C216.11111111111111 0 216.11111111111111 46 195.66666666666666 46L15.333333333333334 46C-5.111111111111112 46 -5.111111111111112 0 15.333333333333334 0Z " stroke="none" fill-opacity="1" fill="#ba68c8"></path><g id="SvgjsG1047"><text id="SvgjsText1048" font-family="微软雅黑" text-anchor="middle" font-size="13px" width="191px" fill="#ffffff" font-weight="700" align="middle" lineHeight="125%" font-style="" opacity="1" y="12.375" transform="rotate(0)"><tspan id="SvgjsTspan1049" dy="16" x="105.5"><tspan id="SvgjsTspan1050" style="text-decoration:;">message_before_waiter_set</tspan></tspan></text></g></g><g id="SvgjsG1051" transform="translate(267,25)"><path id="SvgjsPath1052" d="M15.333333333333334 0L195.66666666666666 0C216.11111111111111 0 216.11111111111111 46 195.66666666666666 46L15.333333333333334 46C-5.111111111111112 46 -5.111111111111112 0 15.333333333333334 0Z " stroke="none" fill-opacity="1" fill="#1dbf00"></path><g id="SvgjsG1053"><text id="SvgjsText1054" font-family="微软雅黑" text-anchor="middle" font-size="13px" width="191px" fill="#ffffff" font-weight="700" align="middle" lineHeight="125%" font-style="" opacity="1" y="12.375" transform="rotate(0)"><tspan id="SvgjsTspan1055" dy="16" x="105.5"><tspan id="SvgjsTspan1056" style="text-decoration:;">message_recv</tspan></tspan></text></g></g><g id="SvgjsG1057"><path id="SvgjsPath1058" d="M372.5 71L372.5 98.5L372.5 98.5L372.5 123.4 " stroke="#323232" stroke-width="2" fill="none" marker-end="url(#SvgjsMarker1059)"></path></g><g id="SvgjsG1061" transform="translate(288.25,227)"><path id="SvgjsPath1062" d="M0 33.5L84.25 0L168.5 33.5L84.25 67L0 33.5Z " stroke="none" fill-opacity="1" fill="#1dbf00"></path><g id="SvgjsG1063"><text id="SvgjsText1064" font-family="微软雅黑" text-anchor="middle" font-size="13px" width="149px" fill="#ffffff" font-weight="700" align="middle" lineHeight="125%" font-style="" opacity="1" y="22.875" transform="rotate(0)"><tspan id="SvgjsTspan1065" dy="16" x="84.5"><tspan id="SvgjsTspan1066" style="text-decoration:;">choice_handlers</tspan></tspan></text></g></g><g id="SvgjsG1067"><path id="SvgjsPath1068" d="M372.5 172L372.5 199.5L372.5 199.5L372.5 224.39999999999998 " stroke="#323232" stroke-width="2" fill="none" marker-end="url(#SvgjsMarker1069)"></path></g><g id="SvgjsG1071"><path id="SvgjsPath1072" d="M372.5 294L372.5 321.5L182.5 321.5L182.5 346.4 " stroke="#323232" stroke-width="2" fill="none" marker-end="url(#SvgjsMarker1073)"></path></g><g id="SvgjsG1075"><path id="SvgjsPath1076" d="M372.5 294L372.5 321.5L562.5 321.5L562.5 346.4 " stroke="#323232" stroke-width="2" fill="none" marker-end="url(#SvgjsMarker1077)"></path><rect id="SvgjsRect1079" width="61" height="16" x="435.7" y="313.5" fill="#ffffff"></rect><text id="SvgjsText1080" font-family="微软雅黑" text-anchor="middle" font-size="13px" width="61px" fill="#323232" font-weight="400" align="top" lineHeight="16px" font-style="" opacity="1" y="310.875" transform="rotate(0)"><tspan id="SvgjsTspan1081" dy="16" x="466.2"><tspan id="SvgjsTspan1082" style="text-decoration:;">No choice</tspan></tspan></text></g><g id="SvgjsG1083"><path id="SvgjsPath1084" d="M478 149L600 149L600 346.4 " stroke="#000000" stroke-width="2" fill="none" marker-end="url(#SvgjsMarker1085)"></path><rect id="SvgjsRect1087" width="64" height="16" x="568" y="231" fill="#ffffff"></rect><text id="SvgjsText1088" font-family="微软雅黑" text-anchor="middle" font-size="13px" width="64px" fill="#323232" font-weight="400" align="top" lineHeight="16px" font-style="" opacity="1" y="228.375" transform="rotate(0)"><tspan id="SvgjsTspan1089" dy="16" x="600"><tspan id="SvgjsTspan1090" style="text-decoration:;">Force wait</tspan></tspan></text></g><g id="SvgjsG1091" transform="translate(77,551)"><path id="SvgjsPath1092" d="M15.333333333333334 0L195.66666666666666 0C216.11111111111111 0 216.11111111111111 46 195.66666666666666 46L15.333333333333334 46C-5.111111111111112 46 -5.111111111111112 0 15.333333333333334 0Z " stroke="none" fill-opacity="1" fill="#1dbf00"></path><g id="SvgjsG1093"><text id="SvgjsText1094" font-family="微软雅黑" text-anchor="middle" font-size="13px" width="191px" fill="#ffffff" font-weight="700" align="middle" lineHeight="125%" font-style="" opacity="1" y="12.375" transform="rotate(0)"><tspan id="SvgjsTspan1095" dy="16" x="105.5"><tspan id="SvgjsTspan1096" style="text-decoration:;">message_send</tspan></tspan></text></g></g><g id="SvgjsG1097"><path id="SvgjsPath1098" d="M182.5 496L182.5 523.5L182.5 523.5L182.5 548.4 " stroke="#323232" stroke-width="2" fill="none" marker-end="url(#SvgjsMarker1099)"></path></g><g id="SvgjsG1101"><path id="SvgjsPath1102" d="M182.5 597L182.5 624.5L182.5 624.5L182.5 649.4 " stroke="#323232" stroke-width="2" fill="none" marker-end="url(#SvgjsMarker1103)"></path></g><g id="SvgjsG1105" transform="translate(457,450)"><path id="SvgjsPath1106" d="M15.333333333333334 0L195.66666666666666 0C216.11111111111111 0 216.11111111111111 46 195.66666666666666 46L15.333333333333334 46C-5.111111111111112 46 -5.111111111111112 0 15.333333333333334 0Z " stroke="none" fill-opacity="1" fill="#1dbf00"></path><g id="SvgjsG1107"><text id="SvgjsText1108" font-family="微软雅黑" text-anchor="middle" font-size="13px" width="191px" fill="#ffffff" font-weight="700" align="middle" lineHeight="125%" font-style="" opacity="1" y="12.375" transform="rotate(0)"><tspan id="SvgjsTspan1109" dy="16" x="105.5"><tspan id="SvgjsTspan1110" style="text-decoration:;">waiter_set</tspan></tspan></text></g></g><g id="SvgjsG1111"><path id="SvgjsPath1112" d="M562.5 395L562.5 422.5L562.5 422.5L562.5 447.4 " stroke="#323232" stroke-width="2" fill="none" marker-end="url(#SvgjsMarker1113)"></path></g><g id="SvgjsG1115"><path id="SvgjsPath1116" d="M457 473L372.5 473L372.5 473L290.6 473 " stroke="#323232" stroke-width="2" fill="none" marker-end="url(#SvgjsMarker1117)"></path></g><g id="SvgjsG1119"><path id="SvgjsPath1120" d="M77 372L47 372L47 48L264.4 48 " stroke-dasharray="8,5" stroke="#f44336" stroke-width="2" fill="none" marker-end="url(#SvgjsMarker1121)"></path><rect id="SvgjsRect1123" width="64" height="16" x="15" y="185" fill="#ffffff"></rect><text id="SvgjsText1124" font-family="微软雅黑" text-anchor="middle" font-size="13px" width="64px" fill="#323232" font-weight="400" align="top" lineHeight="16px" font-style="" opacity="1" y="182.375" transform="rotate(0)"><tspan id="SvgjsTspan1125" dy="16" x="47"><tspan id="SvgjsTspan1126" style="text-decoration:;">Wait event</tspan></tspan></text></g><g id="SvgjsG1127"><path id="SvgjsPath1128" d="M288 675L732 675L732 48L480.6 48 " stroke-dasharray="8,5" stroke="#f44336" stroke-width="2" fill="none" marker-end="url(#SvgjsMarker1129)"></path><rect id="SvgjsRect1131" width="79" height="16" x="692.5" y="353.5" fill="#ffffff"></rect><text id="SvgjsText1132" font-family="微软雅黑" text-anchor="middle" font-size="13px" width="79px" fill="#323232" font-weight="400" align="top" lineHeight="16px" font-style="" opacity="1" y="350.875" transform="rotate(0)"><tspan id="SvgjsTspan1133" dy="16" x="732"><tspan id="SvgjsTspan1134" style="text-decoration:;">Keep waiting</tspan></tspan></text></g></svg>